<svg version="1" xmlns="http://www.w3.org/2000/svg" width="666.667" height="666.667" viewBox="0 0 500.000000 500.000000"><path d="M277.7 34.6L211.8 64H64l-.1 92.2-.1 92.3-4.4-79.5c-2.3-43.7-4.3-80.8-4.3-82.3-.1-2.7-.3-2.8-4.3-2.5l-4.3.3.1 4.7c0 4.7 0 4.8-3.5 5.4-5.1.8-6.3 1.3-5.8 2.2.3.4.8 3.6 1.2 7.2.3 3.6 6.2 41.8 13.1 85 6.8 43.2 12.3 79.5 12.2 80.7-.2 1.2-8.8-29.7-19.3-68.8-10.4-39.1-19.3-71.5-19.6-72.1-.4-.6-2.1-.5-4.8.3-3.6 1.1-4.1 1.6-3.6 3.3 2.1 7.4 2 7.6-2.3 9.3l-4.1 1.6 1.4 3.5c2.2 5 1.9 5.7-2.5 7.5l-4 1.5 4 8.9c2.1 4.8 15.4 34.7 29.4 66.3L64 288.5V436l91.3.1 91.2.1-79.5 4.4c-43.7 2.3-80.3 4.3-81.2 4.3-1.5.1-1.8 1-1.8 4.7v4.7l4.9-.6 5-.6.7 4.5.6 4.5 6.8-.5c3.8-.3 42.5-6.2 86.1-13.1 43.6-6.9 80.1-12.5 81.2-12.3 1.1.2-29.9 8.8-68.9 19.2-39 10.4-71.3 19.3-71.7 19.6-.5.4-.3 2.6.4 4.9 1.1 3.6 1.6 4.1 3.3 3.6 7.3-2.1 7.6-2 9.2 2.3l1.6 4 3.4-1.4c5-2.1 5.9-1.8 7.6 2.6l1.6 3.9 66.1-29.4 66.2-29.5H436l.1-90.3.2-90.2 4.3 79c2.3 43.4 4.3 79.6 4.3 80.3.1.9 1.4 1.2 4.4 1l4.2-.3-.2-4.6c-.3-5 .7-5.9 6.6-5.9 2.3 0 2.3-.1 1.7-6.8-.4-3.7-6.3-42.3-13.2-85.7-6.9-43.5-12.3-80-12.2-81.3.2-1.3 8.8 29.5 19.2 68.5 10.4 38.9 19.2 71.2 19.6 71.6.8.9 9-1.2 9-2.3 0-.4-.7-2.6-1.4-4.8-1.6-4.5-1.7-4.4 3.6-6.1l3.7-1.2-2-4.5-1.9-4.5 4.4-2 4.4-1.9-29.4-66-29.4-65.9V64l-91.2-.1-91.3-.2 79-4.3c43.5-2.3 80-4.3 81.3-4.3 1.8-.1 2.2-.7 2.2-3.4 0-5-1.2-6.1-5.8-5.3-4.4.7-5.2-.2-5.2-5.6v-3l-6.7.5c-3.8.3-42.6 6.3-86.3 13.2-43.7 6.9-80.3 12.5-81.5 12.3-1.1-.2 29.8-8.8 68.7-19.2 39-10.5 71.2-19.2 71.7-19.6.6-.3.6-2.2-.1-4.9-.9-3.7-1.4-4.2-3.2-3.6-7.4 2.1-8.1 1.9-9.6-2.4l-1.3-4-3.5 1.4c-5 2.1-5.6 1.9-7.8-2.4l-1.9-3.9-65.8 29.4zm100.2 86.9c6.2 3.1 6.9-3.1-13.9 121.5-10.4 63-19.2 115.6-19.5 116.8-.8 3.4-5.3 7.2-8.6 7.2-1.5 0-18.2-6.3-37-14-27.3-11.2-34.5-13.8-35.5-12.8-.6.7-8.4 10.3-17.4 21.3-8.9 11-17.3 21-18.7 22.2-3.3 3.2-8.3 3-12.2-.3l-3.1-2.6v-56.6l60.6-74.3c33.4-40.9 61.6-75.5 62.8-76.8 1.1-1.3 1.4-2 .7-1.6-1.2.7-144.9 124.6-152.7 131.6-2 1.9-2.5 1.7-32.5-10.6-18.2-7.5-31.1-13.3-32.1-14.6-2.1-2.5-2.4-8.8-.5-11.3C120.2 264 370.1 120 372.8 120c1.3 0 3.6.7 5.1 1.5z"/></svg>