<?xml version="1.0" encoding="UTF-8" standalone="no"?><!DOCTYPE svg PUBLIC "-//W3C//DTD SVG 1.1//EN" "http://www.w3.org/Graphics/SVG/1.1/DTD/svg11.dtd"><svg width="100%" height="100%" viewBox="0 0 100 100" version="1.1" xmlns="http://www.w3.org/2000/svg" xmlns:xlink="http://www.w3.org/1999/xlink" xml:space="preserve" xmlns:serif="http://www.serif.com/" style="fill-rule:evenodd;clip-rule:evenodd;stroke-linejoin:round;stroke-miterlimit:1.41421;"><g id="Discord-Logo-White" opacity="0.05"><path d="M96.473,-3.137c-1.11,0 -1.987,0.974 -1.987,2.163c0,1.188 0.896,2.162 1.987,2.162c1.111,0 1.988,-0.974 1.988,-2.162c0.019,-1.189 -0.877,-2.163 -1.988,-2.163Zm7.112,0c-1.111,0 -1.987,0.974 -1.987,2.163c0,1.188 0.896,2.162 1.987,2.162c1.111,0 1.987,-0.974 1.987,-2.162c0,-1.189 -0.876,-2.163 -1.987,-2.163Z" style="fill-rule:nonzero;"/><path d="M113.054,-19.484l-26.108,0c-2.202,0 -3.994,1.793 -3.994,4.014l0,26.342c0,2.221 1.792,4.013 3.994,4.013l22.094,0l-1.032,-3.604l2.494,2.319l2.357,2.182l4.189,3.702l0,-34.954c0,-2.221 -1.792,-4.014 -3.994,-4.014Zm-7.521,25.446c0,0 -0.701,-0.838 -1.286,-1.578c2.553,-0.721 3.527,-2.319 3.527,-2.319c-0.799,0.526 -1.559,0.897 -2.241,1.15c-0.974,0.409 -1.909,0.682 -2.825,0.838c-1.87,0.35 -3.585,0.253 -5.046,-0.02c-1.111,-0.214 -2.065,-0.526 -2.864,-0.838c-0.448,-0.175 -0.935,-0.389 -1.422,-0.662c-0.059,-0.039 -0.117,-0.059 -0.176,-0.098c-0.039,-0.019 -0.058,-0.039 -0.078,-0.058c-0.35,-0.195 -0.545,-0.331 -0.545,-0.331c0,0 0.935,1.558 3.409,2.299c-0.584,0.74 -1.305,1.617 -1.305,1.617c-4.306,-0.136 -5.942,-2.962 -5.942,-2.962c0,-6.273 2.805,-11.358 2.805,-11.358c2.806,-2.105 5.475,-2.046 5.475,-2.046l0.195,0.234c-3.507,1.013 -5.124,2.552 -5.124,2.552c0,0 0.428,-0.234 1.149,-0.565c2.085,-0.916 3.741,-1.169 4.423,-1.228c0.117,-0.019 0.214,-0.039 0.331,-0.039c1.189,-0.155 2.533,-0.194 3.936,-0.038c1.851,0.214 3.838,0.759 5.864,1.87c0,0 -1.539,-1.461 -4.851,-2.474l0.273,-0.312c0,0 2.669,-0.059 5.475,2.046c0,0 2.805,5.085 2.805,11.358c0,0 -1.656,2.826 -5.962,2.962Z" style="fill-rule:nonzero;"/></g><g id="Discord-Logo-White1" serif:id="Discord-Logo-White" opacity="0.05"><path d="M46.473,46.863c-1.11,0 -1.987,0.974 -1.987,2.163c0,1.188 0.896,2.162 1.987,2.162c1.111,0 1.988,-0.974 1.988,-2.162c0.019,-1.189 -0.877,-2.163 -1.988,-2.163Zm7.112,0c-1.111,0 -1.987,0.974 -1.987,2.163c0,1.188 0.896,2.162 1.987,2.162c1.111,0 1.987,-0.974 1.987,-2.162c0,-1.189 -0.876,-2.163 -1.987,-2.163Z" style="fill-rule:nonzero;"/><path d="M63.054,30.516l-26.108,0c-2.202,0 -3.994,1.793 -3.994,4.014l0,26.342c0,2.221 1.792,4.013 3.994,4.013l22.094,0l-1.032,-3.604l2.494,2.319l2.357,2.182l4.189,3.702l0,-34.954c0,-2.221 -1.792,-4.014 -3.994,-4.014Zm-7.521,25.446c0,0 -0.701,-0.838 -1.286,-1.578c2.553,-0.721 3.527,-2.319 3.527,-2.319c-0.799,0.526 -1.559,0.897 -2.241,1.15c-0.974,0.409 -1.909,0.682 -2.825,0.838c-1.87,0.35 -3.585,0.253 -5.046,-0.02c-1.111,-0.214 -2.065,-0.526 -2.864,-0.838c-0.448,-0.175 -0.935,-0.389 -1.422,-0.662c-0.059,-0.039 -0.117,-0.059 -0.176,-0.098c-0.039,-0.019 -0.058,-0.039 -0.078,-0.058c-0.35,-0.195 -0.545,-0.331 -0.545,-0.331c0,0 0.935,1.558 3.409,2.299c-0.584,0.74 -1.305,1.617 -1.305,1.617c-4.306,-0.136 -5.942,-2.962 -5.942,-2.962c0,-6.273 2.805,-11.358 2.805,-11.358c2.806,-2.105 5.475,-2.046 5.475,-2.046l0.195,0.234c-3.507,1.013 -5.124,2.552 -5.124,2.552c0,0 0.428,-0.234 1.149,-0.565c2.085,-0.916 3.741,-1.169 4.423,-1.228c0.117,-0.019 0.214,-0.039 0.331,-0.039c1.189,-0.155 2.533,-0.194 3.936,-0.038c1.851,0.214 3.838,0.759 5.864,1.87c0,0 -1.539,-1.461 -4.851,-2.474l0.273,-0.312c0,0 2.669,-0.059 5.475,2.046c0,0 2.805,5.085 2.805,11.358c0,0 -1.656,2.826 -5.962,2.962Z" style="fill-rule:nonzero;"/></g><g id="Discord-Logo-White2" serif:id="Discord-Logo-White" opacity="0.05"><path d="M-3.527,96.863c-1.11,0 -1.987,0.974 -1.987,2.163c0,1.188 0.896,2.162 1.987,2.162c1.111,0 1.988,-0.974 1.988,-2.162c0.019,-1.189 -0.877,-2.163 -1.988,-2.163Zm7.112,0c-1.111,0 -1.987,0.974 -1.987,2.163c0,1.188 0.896,2.162 1.987,2.162c1.111,0 1.987,-0.974 1.987,-2.162c0,-1.189 -0.876,-2.163 -1.987,-2.163Z" style="fill-rule:nonzero;"/><path d="M13.054,80.516l-26.108,0c-2.202,0 -3.994,1.793 -3.994,4.014l0,26.342c0,2.221 1.792,4.013 3.994,4.013l22.094,0l-1.032,-3.604l2.494,2.319l2.357,2.182l4.189,3.702l0,-34.954c0,-2.221 -1.792,-4.014 -3.994,-4.014Zm-7.521,25.446c0,0 -0.701,-0.838 -1.286,-1.578c2.553,-0.721 3.527,-2.319 3.527,-2.319c-0.799,0.526 -1.559,0.897 -2.241,1.15c-0.974,0.409 -1.909,0.682 -2.825,0.838c-1.87,0.35 -3.585,0.253 -5.046,-0.02c-1.111,-0.214 -2.065,-0.526 -2.864,-0.838c-0.448,-0.175 -0.935,-0.389 -1.422,-0.662c-0.059,-0.039 -0.117,-0.059 -0.176,-0.098c-0.039,-0.019 -0.058,-0.039 -0.078,-0.058c-0.35,-0.195 -0.545,-0.331 -0.545,-0.331c0,0 0.935,1.558 3.409,2.299c-0.584,0.74 -1.305,1.617 -1.305,1.617c-4.306,-0.136 -5.942,-2.962 -5.942,-2.962c0,-6.273 2.805,-11.358 2.805,-11.358c2.806,-2.105 5.475,-2.046 5.475,-2.046l0.195,0.234c-3.507,1.013 -5.124,2.552 -5.124,2.552c0,0 0.428,-0.234 1.149,-0.565c2.085,-0.916 3.741,-1.169 4.423,-1.228c0.117,-0.019 0.214,-0.039 0.331,-0.039c1.189,-0.155 2.533,-0.194 3.936,-0.038c1.851,0.214 3.838,0.759 5.864,1.87c0,0 -1.539,-1.461 -4.851,-2.474l0.273,-0.312c0,0 2.669,-0.059 5.475,2.046c0,0 2.805,5.085 2.805,11.358c0,0 -1.656,2.826 -5.962,2.962Z" style="fill-rule:nonzero;"/></g><g id="Discord-Logo-White3" serif:id="Discord-Logo-White" opacity="0.05"><path d="M-3.527,-3.137c-1.11,0 -1.987,0.974 -1.987,2.163c0,1.188 0.896,2.162 1.987,2.162c1.111,0 1.988,-0.974 1.988,-2.162c0.019,-1.189 -0.877,-2.163 -1.988,-2.163Zm7.112,0c-1.111,0 -1.987,0.974 -1.987,2.163c0,1.188 0.896,2.162 1.987,2.162c1.111,0 1.987,-0.974 1.987,-2.162c0,-1.189 -0.876,-2.163 -1.987,-2.163Z" style="fill-rule:nonzero;"/><path d="M13.054,-19.484l-26.108,0c-2.202,0 -3.994,1.793 -3.994,4.014l0,26.342c0,2.221 1.792,4.013 3.994,4.013l22.094,0l-1.032,-3.604l2.494,2.319l2.357,2.182l4.189,3.702l0,-34.954c0,-2.221 -1.792,-4.014 -3.994,-4.014Zm-7.521,25.446c0,0 -0.701,-0.838 -1.286,-1.578c2.553,-0.721 3.527,-2.319 3.527,-2.319c-0.799,0.526 -1.559,0.897 -2.241,1.15c-0.974,0.409 -1.909,0.682 -2.825,0.838c-1.87,0.35 -3.585,0.253 -5.046,-0.02c-1.111,-0.214 -2.065,-0.526 -2.864,-0.838c-0.448,-0.175 -0.935,-0.389 -1.422,-0.662c-0.059,-0.039 -0.117,-0.059 -0.176,-0.098c-0.039,-0.019 -0.058,-0.039 -0.078,-0.058c-0.35,-0.195 -0.545,-0.331 -0.545,-0.331c0,0 0.935,1.558 3.409,2.299c-0.584,0.74 -1.305,1.617 -1.305,1.617c-4.306,-0.136 -5.942,-2.962 -5.942,-2.962c0,-6.273 2.805,-11.358 2.805,-11.358c2.806,-2.105 5.475,-2.046 5.475,-2.046l0.195,0.234c-3.507,1.013 -5.124,2.552 -5.124,2.552c0,0 0.428,-0.234 1.149,-0.565c2.085,-0.916 3.741,-1.169 4.423,-1.228c0.117,-0.019 0.214,-0.039 0.331,-0.039c1.189,-0.155 2.533,-0.194 3.936,-0.038c1.851,0.214 3.838,0.759 5.864,1.87c0,0 -1.539,-1.461 -4.851,-2.474l0.273,-0.312c0,0 2.669,-0.059 5.475,2.046c0,0 2.805,5.085 2.805,11.358c0,0 -1.656,2.826 -5.962,2.962Z" style="fill-rule:nonzero;"/></g><g id="Discord-Logo-White4" serif:id="Discord-Logo-White" opacity="0.05"><path d="M96.473,96.863c-1.11,0 -1.987,0.974 -1.987,2.163c0,1.188 0.896,2.162 1.987,2.162c1.111,0 1.988,-0.974 1.988,-2.162c0.019,-1.189 -0.877,-2.163 -1.988,-2.163Zm7.112,0c-1.111,0 -1.987,0.974 -1.987,2.163c0,1.188 0.896,2.162 1.987,2.162c1.111,0 1.987,-0.974 1.987,-2.162c0,-1.189 -0.876,-2.163 -1.987,-2.163Z" style="fill-rule:nonzero;"/><path d="M113.054,80.516l-26.108,0c-2.202,0 -3.994,1.793 -3.994,4.014l0,26.342c0,2.221 1.792,4.013 3.994,4.013l22.094,0l-1.032,-3.604l2.494,2.319l2.357,2.182l4.189,3.702l0,-34.954c0,-2.221 -1.792,-4.014 -3.994,-4.014Zm-7.521,25.446c0,0 -0.701,-0.838 -1.286,-1.578c2.553,-0.721 3.527,-2.319 3.527,-2.319c-0.799,0.526 -1.559,0.897 -2.241,1.15c-0.974,0.409 -1.909,0.682 -2.825,0.838c-1.87,0.35 -3.585,0.253 -5.046,-0.02c-1.111,-0.214 -2.065,-0.526 -2.864,-0.838c-0.448,-0.175 -0.935,-0.389 -1.422,-0.662c-0.059,-0.039 -0.117,-0.059 -0.176,-0.098c-0.039,-0.019 -0.058,-0.039 -0.078,-0.058c-0.35,-0.195 -0.545,-0.331 -0.545,-0.331c0,0 0.935,1.558 3.409,2.299c-0.584,0.74 -1.305,1.617 -1.305,1.617c-4.306,-0.136 -5.942,-2.962 -5.942,-2.962c0,-6.273 2.805,-11.358 2.805,-11.358c2.806,-2.105 5.475,-2.046 5.475,-2.046l0.195,0.234c-3.507,1.013 -5.124,2.552 -5.124,2.552c0,0 0.428,-0.234 1.149,-0.565c2.085,-0.916 3.741,-1.169 4.423,-1.228c0.117,-0.019 0.214,-0.039 0.331,-0.039c1.189,-0.155 2.533,-0.194 3.936,-0.038c1.851,0.214 3.838,0.759 5.864,1.87c0,0 -1.539,-1.461 -4.851,-2.474l0.273,-0.312c0,0 2.669,-0.059 5.475,2.046c0,0 2.805,5.085 2.805,11.358c0,0 -1.656,2.826 -5.962,2.962Z" style="fill-rule:nonzero;"/></g></svg>