<?xml version="1.0" encoding="UTF-8"?>
<svg enable-background="new 0 0 226.8 226.8" version="1.1" viewBox="0 0 226.8 226.8" xml:space="preserve" xmlns="http://www.w3.org/2000/svg">
<style type="text/css">
	.st0{opacity:0.1;}
</style>
<g class="st0">
	<path d="m34.8-23.2h-7.7v34.8h-50.3v7.7c0 2.1 1.7 3.9 3.9 3.9h42.5l15.5 15.5v-58c0-2.2-1.8-3.9-3.9-3.9zm-15.5 23.2v-34.8c0-2.1-1.7-3.9-3.9-3.9h-50.3c-2.1 0-3.9 1.7-3.9 3.9v54.1l15.5-15.5h38.7c2.2 0.1 3.9-1.7 3.9-3.8z"/>
</g>
<g class="st0">
	<path d="m261.6-23.2h-7.7v34.8h-50.3v7.7c0 2.1 1.7 3.9 3.9 3.9h42.5l15.5 15.5v-58c-0.1-2.2-1.8-3.9-3.9-3.9zm-15.5 23.2v-34.8c0-2.1-1.7-3.9-3.9-3.9h-50.2c-2.1 0-3.9 1.7-3.9 3.9v54.1l15.5-15.5h38.7c2.1 0.1 3.8-1.7 3.8-3.8z"/>
</g>
<g class="st0">
	<path d="m148.2 90.2h-7.7v34.8h-50.3v7.7c0 2.1 1.7 3.9 3.9 3.9h42.5l15.4 15.4v-58c0-2.1-1.7-3.8-3.8-3.8zm-15.5 23.2v-34.8c0-2.1-1.7-3.9-3.9-3.9h-50.2c-2.1 0-3.9 1.7-3.9 3.9v54.1l15.5-15.5h38.7c2.1 0.1 3.8-1.7 3.8-3.8z"/>
</g>
<g class="st0">
	<path d="m35.1 203.6h-7.7v34.8h-50.3v7.7c0 2.1 1.7 3.9 3.9 3.9h42.5l15.5 15.5v-58c-0.1-2.2-1.8-3.9-3.9-3.9zm-15.5 23.2v-34.8c0-2.1-1.7-3.9-3.9-3.9h-50.3c-2.1 0-3.9 1.7-3.9 3.9v54.1l15.5-15.5h38.7c2.2 0 3.9-1.7 3.9-3.8z"/>
</g>
<g class="st0">
	<path d="m261.6 203.6h-7.7v34.8h-50.3v7.7c0 2.1 1.7 3.9 3.9 3.9h42.5l15.5 15.5v-58c-0.1-2.2-1.8-3.9-3.9-3.9zm-15.5 23.2v-34.8c0-2.1-1.7-3.9-3.9-3.9h-50.2c-2.1 0-3.9 1.7-3.9 3.9v54.1l15.5-15.5h38.7c2.1 0 3.8-1.7 3.8-3.8z"/>
</g>
</svg>
