<?xml version="1.0" encoding="utf-8"?>
<!-- Generator: Adobe Illustrator 22.0.1, SVG Export Plug-In . SVG Version: 6.00 Build 0)  -->
<svg version="1.1" id="Layer_1" xmlns:serif="http://www.serif.com/"
	 xmlns="http://www.w3.org/2000/svg" xmlns:xlink="http://www.w3.org/1999/xlink" x="0px" y="0px" viewBox="0 0 226.8 226.8"
	 style="enable-background:new 0 0 226.8 226.8;" xml:space="preserve">
<style type="text/css">
	.st0{opacity:0.1;}
</style>
<g class="st0">
	<path d="M34.8-23.2h-7.7v34.8h-50.3v7.7c0,2.1,1.7,3.9,3.9,3.9h42.5l15.5,15.5v-58C38.7-21.5,36.9-23.2,34.8-23.2z M19.3,0v-34.8
		c0-2.1-1.7-3.9-3.9-3.9h-50.3c-2.1,0-3.9,1.7-3.9,3.9v54.1l15.5-15.5h38.7C17.6,3.9,19.3,2.1,19.3,0z"/>
</g>
<g class="st0">
	<path d="M261.6-23.2h-7.7v34.8h-50.3v7.7c0,2.1,1.7,3.9,3.9,3.9H250l15.5,15.5v-58C265.4-21.5,263.7-23.2,261.6-23.2z M246.1,0
		v-34.8c0-2.1-1.7-3.9-3.9-3.9H192c-2.1,0-3.9,1.7-3.9,3.9v54.1l15.5-15.5h38.7C244.4,3.9,246.1,2.1,246.1,0z"/>
</g>
<g class="st0">
	<path d="M148.2,90.2h-7.7V125H90.2v7.7c0,2.1,1.7,3.9,3.9,3.9h42.5L152,152v-58C152,91.9,150.3,90.2,148.2,90.2z M132.7,113.4V78.6
		c0-2.1-1.7-3.9-3.9-3.9H78.6c-2.1,0-3.9,1.7-3.9,3.9v54.1l15.5-15.5h38.7C131,117.3,132.7,115.5,132.7,113.4z"/>
</g>
<g class="st0">
	<path d="M35.1,203.6h-7.7v34.8h-50.3v7.7c0,2.1,1.7,3.9,3.9,3.9h42.5l15.5,15.5v-58C38.9,205.3,37.2,203.6,35.1,203.6z M19.6,226.8
		V192c0-2.1-1.7-3.9-3.9-3.9h-50.3c-2.1,0-3.9,1.7-3.9,3.9v54.1l15.5-15.5h38.7C17.9,230.6,19.6,228.9,19.6,226.8z"/>
</g>
<g class="st0">
	<path d="M261.6,203.6h-7.7v34.8h-50.3v7.7c0,2.1,1.7,3.9,3.9,3.9H250l15.5,15.5v-58C265.4,205.3,263.7,203.6,261.6,203.6z
		 M246.1,226.8V192c0-2.1-1.7-3.9-3.9-3.9H192c-2.1,0-3.9,1.7-3.9,3.9v54.1l15.5-15.5h38.7C244.4,230.6,246.1,228.9,246.1,226.8z"/>
</g>
</svg>
