<?xml version="1.0" encoding="utf-8"?>
<!-- Generator: Adobe Illustrator 24.3.0, SVG Export Plug-In . SVG Version: 6.00 Build 0)  -->
<svg version="1.1" id="Layer_1" xmlns="http://www.w3.org/2000/svg" xmlns:xlink="http://www.w3.org/1999/xlink" x="0px" y="0px"
	 viewBox="0 0 226.8 226.8" style="enable-background:new 0 0 226.8 226.8;" xml:space="preserve">
<style type="text/css">
	.st0{opacity:0.1;}
</style>
<g class="st0">
	<g>
		<polygon points="-23.2,-12.5 -12.9,-22.4 38.6,27.3 28.3,37.3 		"/>
		<polygon points="-7.7,-27.4 2.6,-37.3 23.2,-17.4 12.9,-7.5 		"/>
		<polygon points="-38.6,2.5 -28.3,-7.5 -7.7,12.4 -18,22.3 		"/>
		<rect x="-38.6" y="33" width="43.7" height="7"/>
	</g>
</g>
<g class="st0">
	<g>
		<polygon points="90.2,92.7 100.5,82.7 152.1,132.5 141.7,142.4 		"/>
		<polygon points="105.7,77.8 116,67.8 136.6,87.7 126.3,97.6 		"/>
		<polygon points="74.8,107.6 85.1,97.7 105.7,117.5 95.4,127.5 		"/>
		<rect x="74.8" y="138.1" width="43.7" height="7"/>
	</g>
</g>
<g class="st0">
	<g>
		<polygon points="203.6,-13.8 213.9,-23.7 265.5,26 255.1,35.9 		"/>
		<polygon points="219.1,-28.7 229.4,-38.6 250,-18.8 239.7,-8.8 		"/>
		<polygon points="188.2,1.1 198.5,-8.8 219.1,11 208.8,21 		"/>
		<rect x="188.2" y="31.6" width="43.7" height="7"/>
	</g>
</g>
<g class="st0">
	<g>
		<polygon points="-23.2,213 -12.9,203.1 38.6,252.8 28.3,262.7 		"/>
		<polygon points="-7.7,198.1 2.6,188.2 23.2,208 12.9,218 		"/>
		<polygon points="-38.6,227.9 -28.3,218 -7.7,237.8 -18,247.8 		"/>
		<rect x="-38.6" y="258.4" width="43.7" height="7"/>
	</g>
</g>
<g class="st0">
	<g>
		<polygon points="203.6,213 213.9,203.1 265.5,252.8 255.1,262.7 		"/>
		<polygon points="219.1,198.1 229.4,188.2 250,208 239.7,218 		"/>
		<polygon points="188.2,227.9 198.5,218 219.1,237.8 208.8,247.8 		"/>
		<rect x="188.2" y="258.4" width="43.7" height="7"/>
	</g>
</g>
</svg>
