<?xml version="1.0" encoding="UTF-8" standalone="no"?><!DOCTYPE svg PUBLIC "-//W3C//DTD SVG 1.1//EN" "http://www.w3.org/Graphics/SVG/1.1/DTD/svg11.dtd"><svg width="100%" height="100%" viewBox="0 0 100 100" version="1.1" xmlns="http://www.w3.org/2000/svg" xmlns:xlink="http://www.w3.org/1999/xlink" xml:space="preserve" xmlns:serif="http://www.serif.com/" style="fill-rule:evenodd;clip-rule:evenodd;stroke-linejoin:round;stroke-miterlimit:1.41421;"><path id="ic_textsms_24px" d="M11.695,-14.619l-23.39,0c-1.608,0 -2.91,1.316 -2.91,2.924l-0.014,26.314l5.847,-5.847l20.467,0c1.608,0 2.924,-1.316 2.924,-2.924l0,-17.543c0,-1.608 -1.316,-2.924 -2.924,-2.924Zm-16.081,13.157l-2.924,0l0,-2.924l2.924,0l0,2.924Zm5.848,0l-2.924,0l0,-2.924l2.924,0l0,2.924Zm5.848,0l-2.924,0l0,-2.924l2.924,0l0,2.924Z" style="fill-opacity:0.1;fill-rule:nonzero;"/><path id="ic_textsms_24px1" serif:id="ic_textsms_24px" d="M111.695,-14.619l-23.39,0c-1.608,0 -2.91,1.316 -2.91,2.924l-0.014,26.314l5.847,-5.847l20.467,0c1.608,0 2.924,-1.316 2.924,-2.924l0,-17.543c0,-1.608 -1.316,-2.924 -2.924,-2.924Zm-16.081,13.157l-2.924,0l0,-2.924l2.924,0l0,2.924Zm5.848,0l-2.924,0l0,-2.924l2.924,0l0,2.924Zm5.848,0l-2.924,0l0,-2.924l2.924,0l0,2.924Z" style="fill-opacity:0.1;fill-rule:nonzero;"/><path id="ic_textsms_24px2" serif:id="ic_textsms_24px" d="M11.695,85.381l-23.39,0c-1.608,0 -2.91,1.316 -2.91,2.924l-0.014,26.314l5.847,-5.847l20.467,0c1.608,0 2.924,-1.316 2.924,-2.924l0,-17.543c0,-1.608 -1.316,-2.924 -2.924,-2.924Zm-16.081,13.157l-2.924,0l0,-2.924l2.924,0l0,2.924Zm5.848,0l-2.924,0l0,-2.924l2.924,0l0,2.924Zm5.848,0l-2.924,0l0,-2.924l2.924,0l0,2.924Z" style="fill-opacity:0.1;fill-rule:nonzero;"/><path id="ic_textsms_24px3" serif:id="ic_textsms_24px" d="M111.695,85.381l-23.39,0c-1.608,0 -2.91,1.316 -2.91,2.924l-0.014,26.314l5.847,-5.847l20.467,0c1.608,0 2.924,-1.316 2.924,-2.924l0,-17.543c0,-1.608 -1.316,-2.924 -2.924,-2.924Zm-16.081,13.157l-2.924,0l0,-2.924l2.924,0l0,2.924Zm5.848,0l-2.924,0l0,-2.924l2.924,0l0,2.924Zm5.848,0l-2.924,0l0,-2.924l2.924,0l0,2.924Z" style="fill-opacity:0.1;fill-rule:nonzero;"/><path id="ic_textsms_24px4" serif:id="ic_textsms_24px" d="M61.695,35.381l-23.39,0c-1.608,0 -2.91,1.316 -2.91,2.924l-0.014,26.314l5.847,-5.847l20.467,0c1.608,0 2.924,-1.316 2.924,-2.924l0,-17.543c0,-1.608 -1.316,-2.924 -2.924,-2.924Zm-16.081,13.157l-2.924,0l0,-2.924l2.924,0l0,2.924Zm5.848,0l-2.924,0l0,-2.924l2.924,0l0,2.924Zm5.848,0l-2.924,0l0,-2.924l2.924,0l0,2.924Z" style="fill-opacity:0.1;fill-rule:nonzero;"/></svg>