<?xml version="1.0" encoding="UTF-8"?>
<!DOCTYPE svg PUBLIC "-//W3C//DTD SVG 1.1//EN" "http://www.w3.org/Graphics/SVG/1.1/DTD/svg11.dtd">
<svg xmlns="http://www.w3.org/2000/svg" version="1.1" width="512px" height="512px" style="shape-rendering:geometricPrecision; text-rendering:geometricPrecision; image-rendering:optimizeQuality; fill-rule:evenodd; clip-rule:evenodd" xmlns:xlink="http://www.w3.org/1999/xlink">
<g><path style="opacity:0.941" fill="#f7e346" d="M 267.5,25.5 C 242.5,46.1667 217.5,66.8333 192.5,87.5C 188.958,87.8128 185.625,87.4794 182.5,86.5C 205.967,62.1983 229.3,37.6983 252.5,13C 258.43,15.7375 263.43,19.9042 267.5,25.5 Z"/></g>
<g><path style="opacity:0.977" fill="#428eda" d="M 307.5,30.5 C 273.169,48.9965 239.169,67.9965 205.5,87.5C 202.941,87.8016 200.607,87.4682 198.5,86.5C 224.187,68.6564 249.52,50.3231 274.5,31.5C 281.558,25.884 289.058,20.884 297,16.5C 301.076,20.7417 304.576,25.4084 307.5,30.5 Z"/></g>
<g><path style="opacity:0.987" fill="#94d308" d="M 346.5,47.5 C 307.966,59.1241 269.632,71.1241 231.5,83.5C 227.167,84.8333 222.833,86.1667 218.5,87.5C 215.615,87.8064 212.948,87.4731 210.5,86.5C 242.353,71.0742 274.353,55.9076 306.5,41C 309.106,40.2082 311.106,38.7082 312.5,36.5C 320.144,33.5966 327.644,30.2633 335,26.5C 339.837,32.8315 343.67,39.8315 346.5,47.5 Z"/></g>
<g><path style="opacity:0.998" fill="#a39733" d="M 267.5,25.5 C 269.833,27.5 272.167,29.5 274.5,31.5C 249.52,50.3231 224.187,68.6564 198.5,86.5C 196.621,87.3414 194.621,87.6747 192.5,87.5C 217.5,66.8333 242.5,46.1667 267.5,25.5 Z"/></g>
<g><path style="opacity:0.992" fill="#2c5f91" d="M 307.5,30.5 C 309.167,32.5 310.833,34.5 312.5,36.5C 311.106,38.7082 309.106,40.2082 306.5,41C 274.353,55.9076 242.353,71.0742 210.5,86.5C 208.958,87.3007 207.292,87.634 205.5,87.5C 239.169,67.9965 273.169,48.9965 307.5,30.5 Z"/></g>
<g><path style="opacity:0.992" fill="#6c9402" d="M 346.5,47.5 C 348.075,49.5475 349.075,51.8808 349.5,54.5C 310.416,64.7988 271.083,74.4654 231.5,83.5C 269.632,71.1241 307.966,59.1241 346.5,47.5 Z"/></g>
<g><path style="opacity:0.996" fill="#fc4f56" d="M 388.5,80.5 C 346.979,82.146 305.646,84.4794 264.5,87.5C 249.167,87.5 233.833,87.5 218.5,87.5C 222.833,86.1667 227.167,84.8333 231.5,83.5C 271.083,74.4654 310.416,64.7988 349.5,54.5C 359.736,52.066 369.903,49.3994 380,46.5C 383.345,57.7032 386.179,69.0365 388.5,80.5 Z"/></g>
<g><path style="opacity:0.993" fill="#b0373d" d="M 388.5,80.5 C 389.167,82.5 389.833,84.5 390.5,86.5C 348.67,87.4987 306.67,87.832 264.5,87.5C 305.646,84.4794 346.979,82.146 388.5,80.5 Z"/></g>
<g><path style="opacity:0.958" fill="#3c3c3c" d="M 182.5,86.5 C 185.625,87.4794 188.958,87.8128 192.5,87.5C 194.621,87.6747 196.621,87.3414 198.5,86.5C 200.607,87.4682 202.941,87.8016 205.5,87.5C 207.292,87.634 208.958,87.3007 210.5,86.5C 212.948,87.4731 215.615,87.8064 218.5,87.5C 233.833,87.5 249.167,87.5 264.5,87.5C 306.67,87.832 348.67,87.4987 390.5,86.5C 401.833,86.5 413.167,86.5 424.5,86.5C 424.5,116.167 424.5,145.833 424.5,175.5C 423.513,180.305 423.179,185.305 423.5,190.5C 423.298,192.95 423.631,195.283 424.5,197.5C 423.527,199.948 423.194,202.615 423.5,205.5C 423.5,207.5 423.5,209.5 423.5,211.5C 423.5,215.833 423.5,220.167 423.5,224.5C 423.5,225.5 423.5,226.5 423.5,227.5C 423.5,240.167 423.5,252.833 423.5,265.5C 423.168,305.004 423.501,344.337 424.5,383.5C 424.5,397.167 424.5,410.833 424.5,424.5C 391.833,424.5 359.167,424.5 326.5,424.5C 321.025,423.511 315.358,423.178 309.5,423.5C 307.167,423.5 304.833,423.5 302.5,423.5C 298.833,423.5 295.167,423.5 291.5,423.5C 288.721,423.279 286.054,423.612 283.5,424.5C 277.355,423.51 271.022,423.177 264.5,423.5C 261.5,423.5 258.5,423.5 255.5,423.5C 211.997,423.168 168.663,423.501 125.5,424.5C 112.833,424.5 100.167,424.5 87.5,424.5C 87.5,389.5 87.5,354.5 87.5,319.5C 87.5,319.167 87.5,318.833 87.5,318.5C 88.4881,313.36 88.8214,308.026 88.5,302.5C 88.5,297.167 88.5,291.833 88.5,286.5C 88.5,279.5 88.5,272.5 88.5,265.5C 88.8322,216.664 88.4988,167.997 87.5,119.5C 87.5,119.167 87.5,118.833 87.5,118.5C 87.5,107.833 87.5,97.1667 87.5,86.5C 119.167,86.5 150.833,86.5 182.5,86.5 Z"/></g>
<g><path style="opacity:1" fill="#434343" d="M 95.5,96.5 C 202.167,96.5 308.833,96.5 415.5,96.5C 415.5,202.5 415.5,308.5 415.5,414.5C 308.833,414.5 202.167,414.5 95.5,414.5C 95.5,308.5 95.5,202.5 95.5,96.5 Z"/></g>
<g><path style="opacity:0.995" fill="#b0363c" d="M 87.5,118.5 C 87.5,118.833 87.5,119.167 87.5,119.5C 87.5,157.5 87.5,195.5 87.5,233.5C 85.1334,195.835 82.8001,158.168 80.5,120.5C 82.6568,119.593 84.9902,118.927 87.5,118.5 Z"/></g>
<g><path style="opacity:1" fill="#823a3d" d="M 87.5,119.5 C 88.4988,167.997 88.8322,216.664 88.5,265.5C 87.4625,264.07 86.7959,262.403 86.5,260.5C 87.4933,251.682 87.8266,242.682 87.5,233.5C 87.5,195.5 87.5,157.5 87.5,119.5 Z"/></g>
<g><path style="opacity:0.993" fill="#fc4f56" d="M 80.5,120.5 C 82.8001,158.168 85.1334,195.835 87.5,233.5C 87.8266,242.682 87.4933,251.682 86.5,260.5C 78.579,225.867 69.9123,191.534 60.5,157.5C 57.6943,147.277 55.361,136.944 53.5,126.5C 62.4647,124.342 71.4647,122.342 80.5,120.5 Z"/></g>
<g><path style="opacity:1" fill="#fdfdfd" d="M 366.5,153.5 C 366.073,156.01 365.407,158.343 364.5,160.5C 363.21,161.058 362.377,162.058 362,163.5C 350.435,220.662 339.101,277.995 328,335.5C 327.136,339.384 325.97,343.051 324.5,346.5C 295.408,334.289 266.074,322.623 236.5,311.5C 234.971,311.529 233.804,312.196 233,313.5C 232.208,330.865 232.375,348.198 233.5,365.5C 232.5,365.5 231.5,365.5 230.5,365.5C 229.504,365.586 228.671,365.252 228,364.5C 227.333,346.167 227.333,327.833 228,309.5C 245.183,288.439 262.35,267.439 279.5,246.5C 288.801,236.361 297.968,226.027 307,215.5C 307.667,214.833 307.667,214.167 307,213.5C 292.268,225.743 277.435,237.743 262.5,249.5C 241.563,264.432 220.896,279.766 200.5,295.5C 183.638,289.157 166.971,282.323 150.5,275C 147.346,272.397 146.679,269.231 148.5,265.5C 216.923,226.263 285.257,186.763 353.5,147C 360.891,143.431 365.225,145.598 366.5,153.5 Z"/></g>
<g><path style="opacity:1" fill="#313131" d="M 329.5,350.5 C 331.027,350.573 332.027,349.906 332.5,348.5C 344.135,286.131 354.802,223.464 364.5,160.5C 365.407,158.343 366.073,156.01 366.5,153.5C 370.846,151.212 373.179,152.879 373.5,158.5C 363.449,221.141 352.949,283.808 342,346.5C 341.868,352.954 338.702,355.121 332.5,353C 330.881,352.764 329.881,351.931 329.5,350.5 Z"/></g>
<g><path style="opacity:0.99" fill="#6e9106" d="M 60.5,157.5 C 69.9123,191.534 78.579,225.867 86.5,260.5C 86.7959,262.403 87.4625,264.07 88.5,265.5C 88.5,272.5 88.5,279.5 88.5,286.5C 87.0937,286.027 86.427,285.027 86.5,283.5C 87.6517,278.015 87.8184,272.349 87,266.5C 75.2691,231.346 64.1024,196.013 53.5,160.5C 55.9446,159.688 58.2779,158.688 60.5,157.5 Z"/></g>
<g><path style="opacity:0.984" fill="#94d403" d="M 53.5,160.5 C 64.1024,196.013 75.2691,231.346 87,266.5C 87.8184,272.349 87.6517,278.015 86.5,283.5C 72.6804,254.526 58.8471,225.526 45,196.5C 44.2917,195.619 43.4584,194.953 42.5,194.5C 39.2773,187.017 35.944,179.517 32.5,172C 32.6448,171.228 32.9781,170.561 33.5,170C 40.2834,167.109 46.95,163.942 53.5,160.5 Z"/></g>
<g><path style="opacity:0.949" fill="#f7e346" d="M 424.5,175.5 C 448.538,198.608 472.705,221.608 497,244.5C 492.853,250.827 487.686,256.494 481.5,261.5C 462.395,237.61 443.062,213.943 423.5,190.5C 423.179,185.305 423.513,180.305 424.5,175.5 Z"/></g>
<g><path style="opacity:0.999" fill="#a39732" d="M 423.5,190.5 C 443.062,213.943 462.395,237.61 481.5,261.5C 479.833,263.833 478.167,266.167 476.5,268.5C 474.983,268.489 473.816,267.823 473,266.5C 456.824,243.471 440.657,220.471 424.5,197.5C 423.631,195.283 423.298,192.95 423.5,190.5 Z"/></g>
<g><path style="opacity:0.994" fill="#2f608f" d="M 42.5,194.5 C 43.4584,194.953 44.2917,195.619 45,196.5C 58.8471,225.526 72.6804,254.526 86.5,283.5C 86.427,285.027 87.0937,286.027 88.5,286.5C 88.5,291.833 88.5,297.167 88.5,302.5C 87.5,302.167 86.8333,301.5 86.5,300.5C 88.4108,294.08 87.2441,288.08 83,282.5C 68.7466,257.662 54.7466,232.662 41,207.5C 39.629,204.734 37.7957,202.401 35.5,200.5C 38.0196,198.737 40.3529,196.737 42.5,194.5 Z"/></g>
<g><path style="opacity:1" fill="#dcdcdc" d="M 364.5,160.5 C 354.802,223.464 344.135,286.131 332.5,348.5C 329.505,348.706 326.838,348.04 324.5,346.5C 325.97,343.051 327.136,339.384 328,335.5C 339.101,277.995 350.435,220.662 362,163.5C 362.377,162.058 363.21,161.058 364.5,160.5 Z"/></g>
<g><path style="opacity:0.973" fill="#428eda" d="M 424.5,197.5 C 440.657,220.471 456.824,243.471 473,266.5C 473.816,267.823 474.983,268.489 476.5,268.5C 481.113,276.218 486.113,283.718 491.5,291C 487.258,295.076 482.592,298.576 477.5,301.5C 459.991,269.141 441.991,237.141 423.5,205.5C 423.194,202.615 423.527,199.948 424.5,197.5 Z"/></g>
<g><path style="opacity:0.973" fill="#418dda" d="M 35.5,200.5 C 37.7957,202.401 39.629,204.734 41,207.5C 54.7466,232.662 68.7466,257.662 83,282.5C 87.2441,288.08 88.4108,294.08 86.5,300.5C 72.8305,281.323 59.3305,261.99 46,242.5C 44.2814,239.712 42.1148,237.379 39.5,235.5C 33.4329,227.434 27.7662,219.101 22.5,210.5C 26.2448,206.454 30.5782,203.121 35.5,200.5 Z"/></g>
<g><path style="opacity:0.992" fill="#2c5f91" d="M 423.5,205.5 C 441.991,237.141 459.991,269.141 477.5,301.5C 475.343,303.412 473.009,305.079 470.5,306.5C 454.593,275.019 438.926,243.352 423.5,211.5C 423.5,209.5 423.5,207.5 423.5,205.5 Z"/></g>
<g><path style="opacity:0.984" fill="#94d307" d="M 423.5,211.5 C 438.926,243.352 454.593,275.019 470.5,306.5C 474.176,314.545 477.843,322.545 481.5,330.5C 474.63,334.101 467.63,337.435 460.5,340.5C 449.104,303.143 437.604,265.81 426,228.5C 425.8,226.68 424.966,225.347 423.5,224.5C 423.5,220.167 423.5,215.833 423.5,211.5 Z"/></g>
<g><path style="opacity:1" fill="#313131" d="M 279.5,246.5 C 256.395,263.76 233.395,281.26 210.5,299C 208.833,299.667 207.167,299.667 205.5,299C 204.748,298.329 204.414,297.496 204.5,296.5C 223.873,280.823 243.206,265.156 262.5,249.5C 277.435,237.743 292.268,225.743 307,213.5C 307.667,214.167 307.667,214.833 307,215.5C 297.968,226.027 288.801,236.361 279.5,246.5 Z"/></g>
<g><path style="opacity:0.997" fill="#a29734" d="M 39.5,235.5 C 42.1148,237.379 44.2814,239.712 46,242.5C 59.3305,261.99 72.8305,281.323 86.5,300.5C 86.8333,301.5 87.5,302.167 88.5,302.5C 88.8214,308.026 88.4881,313.36 87.5,318.5C 87.6655,314.486 87.4988,310.486 87,306.5C 69.287,284.959 51.787,263.292 34.5,241.5C 36.1667,239.5 37.8333,237.5 39.5,235.5 Z"/></g>
<g><path style="opacity:0.996" fill="#fc4f56" d="M 423.5,227.5 C 433.552,265.901 443.052,304.567 452,343.5C 452.383,344.056 452.883,344.389 453.5,344.5C 455.961,354.805 458.294,365.138 460.5,375.5C 450.371,377.326 440.371,379.659 430.5,382.5C 428.57,343.321 426.236,304.321 423.5,265.5C 423.5,252.833 423.5,240.167 423.5,227.5 Z"/></g>
<g><path style="opacity:0.934" fill="#f7e346" d="M 34.5,241.5 C 51.787,263.292 69.287,284.959 87,306.5C 87.4988,310.486 87.6655,314.486 87.5,318.5C 87.5,318.833 87.5,319.167 87.5,319.5C 65.1084,298.44 43.1084,277.106 21.5,255.5C 25.1485,250.185 29.4819,245.519 34.5,241.5 Z"/></g>
<g><path style="opacity:0.988" fill="#6c9402" d="M 423.5,224.5 C 424.966,225.347 425.8,226.68 426,228.5C 437.604,265.81 449.104,303.143 460.5,340.5C 458.167,341.833 455.833,343.167 453.5,344.5C 452.883,344.389 452.383,344.056 452,343.5C 443.052,304.567 433.552,265.901 423.5,227.5C 423.5,226.5 423.5,225.5 423.5,224.5 Z"/></g>
<g><path style="opacity:1" fill="#a5a5a5" d="M 262.5,249.5 C 243.206,265.156 223.873,280.823 204.5,296.5C 203.162,298.113 201.495,298.613 199.5,298C 182.614,290.724 165.614,283.724 148.5,277C 144.519,273.047 144.519,269.214 148.5,265.5C 146.679,269.231 147.346,272.397 150.5,275C 166.971,282.323 183.638,289.157 200.5,295.5C 220.896,279.766 241.563,264.432 262.5,249.5 Z"/></g>
<g><path style="opacity:0.992" fill="#b1373d" d="M 423.5,265.5 C 426.236,304.321 428.57,343.321 430.5,382.5C 428.5,382.833 426.5,383.167 424.5,383.5C 423.501,344.337 423.168,305.004 423.5,265.5 Z"/></g>
<g><path style="opacity:1" fill="#ababab" d="M 324.5,346.5 C 326.838,348.04 329.505,348.706 332.5,348.5C 332.027,349.906 331.027,350.573 329.5,350.5C 311.461,344.486 293.794,337.486 276.5,329.5C 264.6,324.526 252.6,319.526 240.5,314.5C 240.167,314.833 239.833,315.167 239.5,315.5C 244.342,325.859 247.675,336.693 249.5,348C 248.582,350.086 247.915,352.253 247.5,354.5C 243.369,358.13 239.369,361.963 235.5,366C 233.613,366.78 231.946,366.613 230.5,365.5C 231.5,365.5 232.5,365.5 233.5,365.5C 232.375,348.198 232.208,330.865 233,313.5C 233.804,312.196 234.971,311.529 236.5,311.5C 266.074,322.623 295.408,334.289 324.5,346.5 Z"/></g>
<g><path style="opacity:1" fill="#949494" d="M 276.5,329.5 C 275.127,329.343 273.793,329.51 272.5,330C 264.298,338.369 255.965,346.536 247.5,354.5C 247.915,352.253 248.582,350.086 249.5,348C 247.675,336.693 244.342,325.859 239.5,315.5C 239.833,315.167 240.167,314.833 240.5,314.5C 252.6,319.526 264.6,324.526 276.5,329.5 Z"/></g>
<g><path style="opacity:0.998" fill="#af363c" d="M 255.5,423.5 C 253.786,424.738 251.786,425.405 249.5,425.5C 241.344,424.343 233.01,424.177 224.5,425C 192.149,426.641 159.815,428.475 127.5,430.5C 126.637,428.579 125.971,426.579 125.5,424.5C 168.663,423.501 211.997,423.168 255.5,423.5 Z"/></g>
<g><path style="opacity:0.989" fill="#6c9203" d="M 255.5,423.5 C 258.5,423.5 261.5,423.5 264.5,423.5C 232.247,433.982 199.913,444.315 167.5,454.5C 165.929,452.365 164.596,450.032 163.5,447.5C 191.833,439.557 220.5,432.224 249.5,425.5C 251.786,425.405 253.786,424.738 255.5,423.5 Z"/></g>
<g><path style="opacity:0.984" fill="#94d403" d="M 264.5,423.5 C 271.022,423.177 277.355,423.51 283.5,424.5C 255.576,436.796 228.242,450.13 201.5,464.5C 193.633,468.016 185.799,471.683 178,475.5C 173.836,468.848 170.336,461.848 167.5,454.5C 199.913,444.315 232.247,433.982 264.5,423.5 Z"/></g>
<g><path style="opacity:0.992" fill="#2e608f" d="M 291.5,423.5 C 263.189,439.464 234.855,455.464 206.5,471.5C 204.6,469.381 202.934,467.047 201.5,464.5C 228.242,450.13 255.576,436.796 283.5,424.5C 286.054,423.612 288.721,423.279 291.5,423.5 Z"/></g>
<g><path style="opacity:0.971" fill="#418dda" d="M 291.5,423.5 C 295.167,423.5 298.833,423.5 302.5,423.5C 283.918,437.469 264.918,450.969 245.5,464C 243.859,465.129 242.859,466.629 242.5,468.5C 233.889,473.934 225.389,479.601 217,485.5C 212.976,481.298 209.476,476.631 206.5,471.5C 234.855,455.464 263.189,439.464 291.5,423.5 Z"/></g>
<g><path style="opacity:0.998" fill="#a29733" d="M 302.5,423.5 C 304.833,423.5 307.167,423.5 309.5,423.5C 289.39,440.395 269.057,457.062 248.5,473.5C 246.5,471.833 244.5,470.167 242.5,468.5C 242.859,466.629 243.859,465.129 245.5,464C 264.918,450.969 283.918,437.469 302.5,423.5 Z"/></g>
<g><path style="opacity:0.947" fill="#f7e346" d="M 309.5,423.5 C 315.358,423.178 321.025,423.511 326.5,424.5C 306.181,445.986 285.681,467.319 265,488.5C 259.316,483.647 253.816,478.647 248.5,473.5C 269.057,457.062 289.39,440.395 309.5,423.5 Z"/></g>
<g><path style="opacity:0.99" fill="#fc4f56" d="M 249.5,425.5 C 220.5,432.224 191.833,439.557 163.5,447.5C 153.267,450.308 142.934,452.642 132.5,454.5C 130.833,446.5 129.167,438.5 127.5,430.5C 159.815,428.475 192.149,426.641 224.5,425C 233.01,424.177 241.344,424.343 249.5,425.5 Z"/></g>
</svg>
