<svg id="Layer_1" data-name="Layer 1" xmlns="http://www.w3.org/2000/svg" viewBox="0 0 2000 2000"><defs><style>.cls-1{fill:none;}.cls-2{fill:#fff;}.cls-3{fill:#fa0;}.cls-4{fill:#aaa;}.cls-5{fill:#55f;}.cls-6{fill:#5f5;}.cls-7{fill:#67cbdf;}.cls-8{fill:#f55;}.cls-9{fill:#f5f;}.cls-10{fill:#ff5;}.cls-11{fill:#444;}</style></defs><title>PaperMC_final</title><rect class="cls-1" width="2000" height="2000"/><rect class="cls-2" x="332.6" y="331.96" width="1336.08" height="1336.08" transform="translate(-344.93 563.28) rotate(-27)"/><rect class="cls-3" x="332.6" y="331.96" width="1336.08" height="1336.08" transform="translate(-320.23 493.45) rotate(-24)"/><rect class="cls-4" x="332.6" y="331.96" width="1336.08" height="1336.08" transform="translate(-291.91 425.02) rotate(-21)"/><rect class="cls-5" x="332.6" y="331.96" width="1336.08" height="1336.08" transform="translate(-260.04 358.16) rotate(-18)"/><rect class="cls-6" x="332.6" y="331.96" width="1336.08" height="1336.08" transform="translate(-224.72 293.06) rotate(-15)"/><rect class="cls-7" x="332.6" y="331.96" width="1336.08" height="1336.08" transform="matrix(0.98, -0.21, 0.21, 0.98, -186.05, 229.9)"/><rect class="cls-8" x="332.6" y="331.96" width="1336.08" height="1336.08" transform="translate(-144.11 168.85) rotate(-9)"/><rect class="cls-9" x="332.6" y="331.96" width="1336.08" height="1336.08" transform="translate(-99.05 110.07) rotate(-6)"/><rect class="cls-10" x="332.6" y="331.96" width="1336.08" height="1336.08" transform="translate(-50.96 53.74) rotate(-3)"/><rect class="cls-11" x="332.6" y="331.96" width="1336.08" height="1336.08"/><path class="cls-2" d="M1477.71,572.75l-136.63,819.8c-1.6,10.14-8,18.68-17.08,24a34.68,34.68,0,0,1-16.55,4.27,36.68,36.68,0,0,1-12.81-2.67l-241.78-98.74L923.7,1476.87a33.15,33.15,0,0,1-26.15,12.28,30.43,30.43,0,0,1-11.74-2.13,34.06,34.06,0,0,1-22.42-32V1268.72l461.14-565.21L754,1197.2l-210.82-86.46c-12.28-4.8-20.28-16-21.35-29.35a34.49,34.49,0,0,1,17.08-31.49L1427,537.52a33.1,33.1,0,0,1,17.08-4.8,34,34,0,0,1,19.21,5.87A34.58,34.58,0,0,1,1477.71,572.75Z"/></svg>