<?xml version="1.0" encoding="UTF-8" standalone="no"?><!DOCTYPE svg PUBLIC "-//W3C//DTD SVG 1.1//EN" "http://www.w3.org/Graphics/SVG/1.1/DTD/svg11.dtd"><svg width="100%" height="100%" viewBox="0 0 500 500" version="1.1" xmlns="http://www.w3.org/2000/svg" xmlns:xlink="http://www.w3.org/1999/xlink" xml:space="preserve" xmlns:serif="http://www.serif.com/" style="fill-rule:evenodd;clip-rule:evenodd;stroke-linejoin:round;stroke-miterlimit:1.41421;"><g><rect x="43.785" y="30.314" width="444.229" height="444.229" style="fill:none;"/><path d="M330.348,0l-330.348,168.322l168.322,330.348l330.348,-168.322l-168.322,-330.348Z"/><path d="M343.29,4.559l-338.705,150.803l150.801,338.704l338.704,-150.803l-150.8,-338.704Z" style="fill:#fa0;"/><path d="M355.995,9.846l-346.133,132.869l132.867,346.133l346.133,-132.867l-132.867,-346.135Z" style="fill:#aaa;"/><path d="M368.354,15.686l-352.615,114.572l114.572,352.612l352.615,-114.569l-114.572,-352.615Z" style="fill:#55f;"/><path d="M380.447,22.269l-358.125,95.96l95.96,358.125l358.125,-95.96l-95.96,-358.125Z" style="fill:#5f5;"/><path d="M393.141,28.718l-363.346,77.827l77.83,363.346l363.346,-77.827l-77.83,-363.346Z" style="fill:#67cbdf;"/><path d="M403.444,37.218l-366.194,58l58,366.194l366.194,-58l-58,-366.194Z" style="fill:#f55;"/><path d="M414.346,45.598l-368.729,38.756l38.755,368.728l368.729,-38.755l-38.755,-368.729Z" style="fill:#f5f;"/><path d="M424.795,54.465l-370.252,19.405l19.404,370.25l370.252,-19.405l-19.404,-370.25Z" style="fill:#ff5;"/><rect x="63.949" y="63.918" width="370.761" height="370.761" style="fill:#444;"/><path d="M381.769,130.761l-37.931,227.593c-0.474,2.832 -2.248,5.287 -4.79,6.627c-1.412,0.774 -2.992,1.184 -4.601,1.197c-1.205,-0.013 -2.394,-0.263 -3.5,-0.737l-67.117,-27.619l-35.817,43.731c-1.774,2.189 -4.454,3.444 -7.271,3.407c-1.109,0.019 -2.207,-0.202 -3.223,-0.644c-3.905,-1.313 -6.476,-5.093 -6.261,-9.207l0,-51.282l127.976,-156.516l-158.359,136.721l-58.463,-24.029c-3.42,-1.272 -5.774,-4.46 -5.984,-8.101c-0.449,-3.756 1.458,-7.421 4.787,-9.208l246.469,-141.784c3.045,-1.982 6.989,-1.982 10.034,0c3.176,2.186 4.769,6.061 4.051,9.851Z" style="fill:#fff;fill-rule:nonzero;"/></g></svg>