<?xml version="1.0" encoding="UTF-8"?>
<!DOCTYPE svg PUBLIC "-//W3C//DTD SVG 1.1//EN" "http://www.w3.org/Graphics/SVG/1.1/DTD/svg11.dtd">
<svg xmlns="http://www.w3.org/2000/svg" version="1.1" width="2944px" height="1024px" style="shape-rendering:geometricPrecision; text-rendering:geometricPrecision; image-rendering:optimizeQuality; fill-rule:evenodd; clip-rule:evenodd" xmlns:xlink="http://www.w3.org/1999/xlink">
<g><path style="opacity:0.991" fill="#f6e245" d="M 756.5,111.5 C 756.256,114.263 754.923,116.429 752.5,118C 709.58,152.279 666.914,186.779 624.5,221.5C 619.167,221.5 613.833,221.5 608.5,221.5C 608.167,221.5 607.833,221.5 607.5,221.5C 613.096,214.73 618.929,208.064 625,201.5C 660.404,164.932 695.571,128.265 730.5,91.5C 732.074,90.3691 733.741,90.2025 735.5,91C 742.422,98.0907 749.422,104.924 756.5,111.5 Z"/></g>
<g><path style="opacity:0.996" fill="#428eda" d="M 824.5,117.5 C 825.028,118.847 825.195,120.181 825,121.5C 765.884,154.973 706.717,188.307 647.5,221.5C 643.298,221.817 639.298,221.483 635.5,220.5C 679.258,189.11 723.258,157.943 767.5,127C 768.823,126.184 769.489,125.017 769.5,123.5C 782.405,114.13 795.572,105.13 809,96.5C 810.979,98.395 812.979,100.395 815,102.5C 817.996,107.651 821.162,112.651 824.5,117.5 Z"/></g>
<g><path style="opacity:1" fill="#a39731" d="M 756.5,111.5 C 760.833,115.5 765.167,119.5 769.5,123.5C 769.489,125.017 768.823,126.184 767.5,127C 723.258,157.943 679.258,189.11 635.5,220.5C 635.167,220.5 634.833,220.5 634.5,220.5C 631.272,221.414 627.939,221.747 624.5,221.5C 666.914,186.779 709.58,152.279 752.5,118C 754.923,116.429 756.256,114.263 756.5,111.5 Z"/></g>
<g><path style="opacity:1" fill="#94d405" d="M 895.5,150.5 C 828.665,172.121 761.665,192.954 694.5,213C 690.736,213.852 687.403,215.352 684.5,217.5C 679.863,218.925 675.196,220.258 670.5,221.5C 665.637,221.819 660.97,221.486 656.5,220.5C 715.593,192.123 774.927,163.956 834.5,136C 835.756,135.583 836.423,134.75 836.5,133.5C 850.098,127.463 863.598,121.129 877,114.5C 877.772,114.645 878.439,114.978 879,115.5C 885.058,126.947 890.558,138.613 895.5,150.5 Z"/></g>
<g><path style="opacity:1" fill="#2b5f92" d="M 824.5,117.5 C 828.5,122.833 832.5,128.167 836.5,133.5C 836.423,134.75 835.756,135.583 834.5,136C 774.927,163.956 715.593,192.123 656.5,220.5C 656.167,220.5 655.833,220.5 655.5,220.5C 652.946,221.388 650.279,221.721 647.5,221.5C 706.717,188.307 765.884,154.973 825,121.5C 825.195,120.181 825.028,118.847 824.5,117.5 Z"/></g>
<g><path style="opacity:0.998" fill="#6a9401" d="M 895.5,150.5 C 897.394,155.115 899.727,159.448 902.5,163.5C 902.389,164.117 902.056,164.617 901.5,165C 829.237,182.905 756.904,200.405 684.5,217.5C 687.403,215.352 690.736,213.852 694.5,213C 761.665,192.954 828.665,172.121 895.5,150.5 Z"/></g>
<g><path style="opacity:1" fill="#fd4f57" d="M 969.5,209.5 C 891.999,213.095 814.665,217.095 737.5,221.5C 715.167,221.5 692.833,221.5 670.5,221.5C 675.196,220.258 679.863,218.925 684.5,217.5C 756.904,200.405 829.237,182.905 901.5,165C 902.056,164.617 902.389,164.117 902.5,163.5C 919.979,158.837 937.646,155.004 955.5,152C 956.329,153.816 957.163,155.649 958,157.5C 961.858,174.921 965.691,192.254 969.5,209.5 Z"/></g>
<g><path style="opacity:1" fill="#b2363d" d="M 969.5,209.5 C 971.281,213.2 972.281,217.2 972.5,221.5C 894.167,221.5 815.833,221.5 737.5,221.5C 814.665,217.095 891.999,213.095 969.5,209.5 Z"/></g>
<g><path style="opacity:0.986" fill="#3c3b3b" d="M 634.5,220.5 C 634.833,220.5 635.167,220.5 635.5,220.5C 639.298,221.483 643.298,221.817 647.5,221.5C 650.279,221.721 652.946,221.388 655.5,220.5C 657.571,221.809 660.071,222.475 663,222.5C 665.69,222.497 668.19,222.164 670.5,221.5C 692.833,221.5 715.167,221.5 737.5,221.5C 815.833,221.5 894.167,221.5 972.5,221.5C 992.5,221.5 1012.5,221.5 1032.5,221.5C 1032.5,272.833 1032.5,324.167 1032.5,375.5C 1031.51,383.984 1031.17,392.651 1031.5,401.5C 1031.5,405.5 1031.5,409.5 1031.5,413.5C 1031.5,418.5 1031.5,423.5 1031.5,428.5C 1031.24,432.269 1031.58,435.936 1032.5,439.5C 1031.51,445.645 1031.18,451.978 1031.5,458.5C 1031.5,461.5 1031.5,464.5 1031.5,467.5C 1031.5,482.833 1031.5,498.167 1031.5,513.5C 1031.17,589.904 1031.5,666.238 1032.5,742.5C 1032.5,765.833 1032.5,789.167 1032.5,812.5C 975.5,812.5 918.5,812.5 861.5,812.5C 851.833,812.5 842.167,812.5 832.5,812.5C 827.737,812.226 823.07,812.559 818.5,813.5C 812.355,812.51 806.022,812.177 799.5,812.5C 795.5,812.5 791.5,812.5 787.5,812.5C 771.167,811.167 754.833,811.167 738.5,812.5C 738.167,812.5 737.833,812.5 737.5,812.5C 661.167,812.5 584.833,812.5 508.5,812.5C 486.167,812.5 463.833,812.5 441.5,812.5C 441.5,751.5 441.5,690.5 441.5,629.5C 441.5,629.167 441.5,628.833 441.5,628.5C 442.494,619.014 442.827,609.348 442.5,599.5C 442.666,590.494 442.5,581.494 442,572.5C 440.961,571.756 440.461,570.756 440.5,569.5C 441.117,569.611 441.617,569.944 442,570.5C 442.5,558.505 442.667,546.505 442.5,534.5C 442.833,448.665 442.499,362.998 441.5,277.5C 441.5,258.833 441.5,240.167 441.5,221.5C 496.833,221.5 552.167,221.5 607.5,221.5C 607.833,221.5 608.167,221.5 608.5,221.5C 612.653,222.166 616.987,222.499 621.5,222.5C 626.222,222.492 630.555,221.825 634.5,220.5 Z"/></g>
<g><path style="opacity:0.999" fill="#716c3e" d="M 634.5,220.5 C 630.555,221.825 626.222,222.492 621.5,222.5C 616.987,222.499 612.653,222.166 608.5,221.5C 613.833,221.5 619.167,221.5 624.5,221.5C 627.939,221.747 631.272,221.414 634.5,220.5 Z"/></g>
<g><path style="opacity:1" fill="#576c2c" d="M 655.5,220.5 C 655.833,220.5 656.167,220.5 656.5,220.5C 660.97,221.486 665.637,221.819 670.5,221.5C 668.19,222.164 665.69,222.497 663,222.5C 660.071,222.475 657.571,221.809 655.5,220.5 Z"/></g>
<g><path style="opacity:1" fill="#444444" d="M 455.5,237.5 C 642.833,237.5 830.167,237.5 1017.5,237.5C 1017.67,423.834 1017.5,610.167 1017,796.5C 923.57,797.166 830.07,797.499 736.5,797.5C 642.93,797.499 549.43,797.166 456,796.5C 455.5,610.167 455.333,423.834 455.5,237.5 Z"/></g>
<g><path style="opacity:1" fill="#8c383d" d="M 441.5,277.5 C 442.499,362.998 442.833,448.665 442.5,534.5C 441.326,533.486 440.66,532.153 440.5,530.5C 441.494,520.013 441.828,509.346 441.5,498.5C 441.5,424.833 441.5,351.167 441.5,277.5 Z"/></g>
<g><path style="opacity:1" fill="#b0363c" d="M 441.5,277.5 C 441.5,351.167 441.5,424.833 441.5,498.5C 436.422,425.71 432.422,352.71 429.5,279.5C 433.476,278.705 437.476,278.038 441.5,277.5 Z"/></g>
<g><path style="opacity:1" fill="#fd4e57" d="M 429.5,279.5 C 432.422,352.71 436.422,425.71 441.5,498.5C 441.828,509.346 441.494,520.013 440.5,530.5C 426.957,474.115 413.291,417.782 399.5,361.5C 399.277,357.838 398.277,354.505 396.5,351.5C 396.606,348.921 395.939,346.588 394.5,344.5C 392.065,335.836 389.565,327.169 387,318.5C 385.579,309.374 383.913,300.374 382,291.5C 397.568,286.833 413.402,282.833 429.5,279.5 Z"/></g>
<g><path style="opacity:1" fill="#fefefe" d="M 926.5,326.5 C 927.135,333.788 926.968,341.122 926,348.5C 903.844,457.727 882.01,567.06 860.5,676.5C 859.5,676.5 858.5,676.5 857.5,676.5C 809.428,657.302 761.428,637.802 713.5,618C 708.992,616.049 704.326,615.382 699.5,616C 698.299,616.903 697.465,618.069 697,619.5C 696.333,648.167 696.333,676.833 697,705.5C 697.804,708.146 699.304,710.146 701.5,711.5C 696.27,712.926 691.77,711.593 688,707.5C 687.333,675.5 687.333,643.5 688,611.5C 720.044,573.627 751.878,535.627 783.5,497.5C 798.652,479.181 813.985,461.014 829.5,443C 811.772,456.539 794.105,470.372 776.5,484.5C 765.049,492.403 753.715,500.569 742.5,509C 709.319,534.425 676.319,560.092 643.5,586C 642.271,586.781 640.938,587.281 639.5,587.5C 610.293,576.154 581.293,564.321 552.5,552C 546.947,548.081 544.947,542.915 546.5,536.5C 547.29,535.206 548.29,534.039 549.5,533C 671.33,463.586 792.996,393.92 914.5,324C 917.5,323.333 920.5,323.333 923.5,324C 924.942,324.377 925.942,325.21 926.5,326.5 Z"/></g>
<g><path style="opacity:1" fill="#dbdbdb" d="M 926.5,326.5 C 930.793,328.474 932.46,331.807 931.5,336.5C 912.269,447.32 893.602,558.32 875.5,669.5C 874.239,672.258 873.406,675.258 873,678.5C 867.359,681.432 862.193,680.766 857.5,676.5C 858.5,676.5 859.5,676.5 860.5,676.5C 882.01,567.06 903.844,457.727 926,348.5C 926.968,341.122 927.135,333.788 926.5,326.5 Z"/></g>
<g><path style="opacity:1" fill="#2f2f2f" d="M 861.5,683.5 C 871.746,684.588 876.412,679.921 875.5,669.5C 893.602,558.32 912.269,447.32 931.5,336.5C 933.541,334.065 935.874,333.898 938.5,336C 941.552,338.199 943.552,341.032 944.5,344.5C 925.456,458.727 905.956,572.727 886,686.5C 881.975,689.393 877.475,690.226 872.5,689C 868.504,687.669 864.837,685.835 861.5,683.5 Z"/></g>
<g><path style="opacity:0.997" fill="#6b9203" d="M 394.5,344.5 C 395.939,346.588 396.606,348.921 396.5,351.5C 396.723,355.162 397.723,358.495 399.5,361.5C 413.291,417.782 426.957,474.115 440.5,530.5C 440.66,532.153 441.326,533.486 442.5,534.5C 442.667,546.505 442.5,558.505 442,570.5C 441.617,569.944 441.117,569.611 440.5,569.5C 440.5,569.167 440.5,568.833 440.5,568.5C 441.658,559.343 441.824,550.009 441,540.5C 421.019,477.616 401.185,414.616 381.5,351.5C 385.577,348.773 389.91,346.439 394.5,344.5 Z"/></g>
<g><path style="opacity:1" fill="#95d402" d="M 381.5,351.5 C 401.185,414.616 421.019,477.616 441,540.5C 441.824,550.009 441.658,559.343 440.5,568.5C 415.792,516.082 390.792,463.748 365.5,411.5C 365.043,410.702 364.376,410.369 363.5,410.5C 357.445,396.816 351.111,383.316 344.5,370C 344.759,368.739 345.426,367.739 346.5,367C 357.961,361.347 369.627,356.181 381.5,351.5 Z"/></g>
<g><path style="opacity:1" fill="#a77626" d="M 396.5,351.5 C 398.277,354.505 399.277,357.838 399.5,361.5C 397.723,358.495 396.723,355.162 396.5,351.5 Z"/></g>
<g><path style="opacity:0.994" fill="#fefefe" d="M 1602.5,566.5 C 1606.52,583.395 1610.85,600.228 1615.5,617C 1615.41,618.107 1615.08,619.107 1614.5,620C 1608.97,623.106 1603.3,625.606 1597.5,627.5C 1596.51,627.328 1595.84,627.662 1595.5,628.5C 1589.01,628.98 1582.51,629.313 1576,629.5C 1568.69,629.755 1561.52,628.922 1554.5,627C 1550.17,612 1545.83,597 1541.5,582C 1520.03,583.184 1498.69,585.684 1477.5,589.5C 1476.49,592.195 1475.49,594.862 1474.5,597.5C 1470.84,610.315 1466.67,622.982 1462,635.5C 1456.25,636.494 1450.41,637.16 1444.5,637.5C 1430.91,637.742 1418.25,634.242 1406.5,627C 1405.2,626.196 1404.53,625.029 1404.5,623.5C 1434.17,540.149 1463.84,456.815 1493.5,373.5C 1493.86,371.629 1494.86,370.129 1496.5,369C 1513.3,359.278 1530.13,359.111 1547,368.5C 1565.44,434.641 1583.94,500.641 1602.5,566.5 Z M 1502.5,500.5 C 1504.72,511.795 1506.72,523.128 1508.5,534.5C 1502.47,535.171 1496.47,535.671 1490.5,536C 1494.43,524.048 1498.43,512.215 1502.5,500.5 Z"/></g>
<g><path style="opacity:0.992" fill="#fefefe" d="M 2653.5,442.5 C 2652.94,441.21 2651.94,440.377 2650.5,440C 2632.85,432.667 2614.51,429.667 2595.5,431C 2587.1,433.033 2579.76,436.867 2573.5,442.5C 2561.23,454.369 2553.06,468.703 2549,485.5C 2541.68,512.274 2546.02,536.941 2562,559.5C 2570.87,569.516 2582.04,574.516 2595.5,574.5C 2616.95,573.107 2637.95,569.607 2658.5,564C 2668.23,581.408 2668.89,599.074 2660.5,617C 2654.36,620.074 2648.03,622.574 2641.5,624.5C 2600.27,643.75 2561.6,639.584 2525.5,612C 2504.57,590.927 2493.07,565.427 2491,535.5C 2488.77,502.71 2492.77,470.71 2503,439.5C 2510.18,418.759 2522.01,401.426 2538.5,387.5C 2554.53,376.765 2572.2,370.265 2591.5,368C 2607.19,367.283 2622.85,367.617 2638.5,369C 2655.44,371.215 2668.61,379.382 2678,393.5C 2682.94,414.346 2677.61,432.013 2662,446.5C 2659.34,444.754 2656.51,443.42 2653.5,442.5 Z"/></g>
<g><path style="opacity:0.994" fill="#fefefe" d="M 1448.5,449.5 C 1447.6,468.117 1443.1,485.784 1435,502.5C 1432,506.992 1428.84,511.325 1425.5,515.5C 1424.83,515.5 1424.5,515.833 1424.5,516.5C 1415.25,524.293 1404.92,530.293 1393.5,534.5C 1363.89,542.735 1333.89,549.068 1303.5,553.5C 1302.89,556.696 1302.89,559.696 1303.5,562.5C 1300.97,584.475 1298.3,606.475 1295.5,628.5C 1288.98,630.797 1282.31,632.464 1275.5,633.5C 1262.62,634.532 1250.96,631.365 1240.5,624C 1239.2,623.196 1238.53,622.029 1238.5,620.5C 1245.88,544.194 1253.04,467.861 1260,391.5C 1260.12,388.496 1260.95,385.829 1262.5,383.5C 1267.66,379.863 1272.99,376.363 1278.5,373C 1315.4,368.881 1352.4,367.548 1389.5,369C 1405.43,369.643 1419.76,374.643 1432.5,384C 1441.59,393.675 1446.75,405.175 1448,418.5C 1448.21,423.885 1448.71,429.219 1449.5,434.5C 1448.55,439.435 1448.22,444.435 1448.5,449.5 Z M 1315.5,433.5 C 1327.55,433.135 1339.55,433.635 1351.5,435C 1362.43,435.932 1368.93,441.765 1371,452.5C 1373.07,466.997 1370.24,480.33 1362.5,492.5C 1344.73,496.877 1326.73,498.21 1308.5,496.5C 1311.2,475.556 1313.53,454.556 1315.5,433.5 Z"/></g>
<g><path style="opacity:0.994" fill="#fefefe" d="M 2356.5,497.5 C 2357.55,504.693 2359.38,511.693 2362,518.5C 2384.18,472.811 2406.34,427.145 2428.5,381.5C 2429.15,376.009 2432.15,372.842 2437.5,372C 2452.17,369.159 2466.83,369.326 2481.5,372.5C 2479.58,405.173 2477.58,437.84 2475.5,470.5C 2473.29,498.796 2471.63,527.13 2470.5,555.5C 2468.91,580.84 2467.24,606.174 2465.5,631.5C 2458.83,631.5 2452.17,631.5 2445.5,631.5C 2433.68,630.505 2421.68,630.172 2409.5,630.5C 2409.5,627.5 2409.5,624.5 2409.5,621.5C 2411.39,584.482 2413.22,547.482 2415,510.5C 2406.86,529.081 2399.03,547.747 2391.5,566.5C 2382.11,586.959 2372.94,607.626 2364,628.5C 2358.46,631.571 2352.63,632.238 2346.5,630.5C 2343.53,628.359 2341.03,625.692 2339,622.5C 2330.16,585.463 2321.16,548.463 2312,511.5C 2309.35,536.103 2307.18,560.769 2305.5,585.5C 2304.81,600.856 2303.81,616.189 2302.5,631.5C 2295.83,631.5 2289.17,631.5 2282.5,631.5C 2270.5,631.5 2258.5,631.5 2246.5,631.5C 2251.36,547.473 2256.69,463.473 2262.5,379.5C 2262.24,377.208 2262.58,375.041 2263.5,373C 2283.18,366.825 2302.68,367.325 2322,374.5C 2333.37,415.662 2344.87,456.662 2356.5,497.5 Z"/></g>
<g><path style="opacity:0.994" fill="#fefefe" d="M 1825.5,412.5 C 1829.18,439.113 1827.51,465.446 1820.5,491.5C 1811.25,513.416 1795.25,528.083 1772.5,535.5C 1742.89,543.735 1712.89,550.068 1682.5,554.5C 1681.89,557.696 1681.89,560.696 1682.5,563.5C 1679.97,585.475 1677.3,607.475 1674.5,629.5C 1667.98,631.797 1661.31,633.464 1654.5,634.5C 1641.62,635.532 1629.96,632.365 1619.5,625C 1618.2,624.196 1617.53,623.029 1617.5,621.5C 1624.88,545.194 1632.04,468.861 1639,392.5C 1639.12,389.496 1639.95,386.829 1641.5,384.5C 1646.66,380.863 1651.99,377.363 1657.5,374C 1697.09,369.46 1736.76,368.46 1776.5,371C 1793.4,372.532 1807.24,379.699 1818,392.5C 1821.92,398.66 1824.42,405.327 1825.5,412.5 Z M 1694.5,434.5 C 1706.55,434.135 1718.55,434.635 1730.5,436C 1741.43,436.932 1747.93,442.765 1750,453.5C 1752.07,467.997 1749.24,481.33 1741.5,493.5C 1723.73,497.877 1705.73,499.21 1687.5,497.5C 1690.2,476.556 1692.53,455.556 1694.5,434.5 Z"/></g>
<g><path style="opacity:0.992" fill="#fefefe" d="M 2239.5,419.5 C 2240.32,439.658 2238.99,459.658 2235.5,479.5C 2227.89,503.775 2211.89,519.775 2187.5,527.5C 2182.42,529.184 2177.42,531.017 2172.5,533C 2173.08,534.417 2174.08,535.25 2175.5,535.5C 2192.1,558.429 2209.43,580.763 2227.5,602.5C 2228.88,605.741 2230.55,608.907 2232.5,612C 2230.28,616.286 2227.94,620.453 2225.5,624.5C 2219.22,631.107 2211.55,635.107 2202.5,636.5C 2193.69,637.029 2185.02,636.196 2176.5,634C 2155.96,605.095 2135.8,575.928 2116,546.5C 2115.11,545.919 2114.11,545.585 2113,545.5C 2106.86,546.497 2100.7,547.163 2094.5,547.5C 2094.5,551.167 2094.5,554.833 2094.5,558.5C 2092,582.152 2089.5,605.819 2087,629.5C 2080.47,632.341 2073.64,634.008 2066.5,634.5C 2054.56,635.93 2043.56,633.43 2033.5,627C 2031.6,625.735 2030.27,624.069 2029.5,622C 2036.83,545.853 2044,469.687 2051,393.5C 2051.06,390.189 2051.89,387.189 2053.5,384.5C 2058.47,381.344 2063.47,378.177 2068.5,375C 2109.73,369.305 2151.06,368.305 2192.5,372C 2219.83,376.499 2235.5,392.332 2239.5,419.5 Z M 2156.5,486.5 C 2138.09,490.674 2119.42,492.341 2100.5,491.5C 2102.43,472.825 2104.43,454.158 2106.5,435.5C 2120.66,433.787 2134.66,434.62 2148.5,438C 2159.31,442.691 2163.98,451.024 2162.5,463C 2162.61,471.399 2160.61,479.232 2156.5,486.5 Z"/></g>
<g><path style="opacity:0.995" fill="#fefefe" d="M 2000.5,423.5 C 1968.17,423.5 1935.83,423.5 1903.5,423.5C 1903.5,427.167 1903.5,430.833 1903.5,434.5C 1902.35,445.796 1901.68,457.129 1901.5,468.5C 1932.51,468.167 1963.51,468.5 1994.5,469.5C 2001.73,485.712 2001.06,501.546 1992.5,517C 1987.18,517.499 1981.84,517.666 1976.5,517.5C 1949.83,517.5 1923.17,517.5 1896.5,517.5C 1896.5,521.167 1896.5,524.833 1896.5,528.5C 1894.99,542.465 1893.65,556.465 1892.5,570.5C 1931.17,570.333 1969.83,570.5 2008.5,571C 2010.28,574.876 2011.95,578.709 2013.5,582.5C 2015.74,596.556 2014.41,610.223 2009.5,623.5C 2008.19,625.435 2006.86,627.435 2005.5,629.5C 2000.21,630.495 1994.87,630.828 1989.5,630.5C 1939.5,630.667 1889.5,630.5 1839.5,630C 1834.96,628.276 1832.63,624.943 1832.5,620C 1837.86,541.159 1843.19,462.326 1848.5,383.5C 1849.41,379.411 1851.41,375.911 1854.5,373C 1909.84,372.167 1965.17,372.333 2020.5,373.5C 2024.64,388.214 2024.47,402.88 2020,417.5C 2019.16,419.351 2018.33,421.184 2017.5,423C 2011.84,423.499 2006.18,423.666 2000.5,423.5 Z"/></g>
<g><path style="opacity:0.971" fill="#010101" d="M 1493.5,373.5 C 1463.84,456.815 1434.17,540.149 1404.5,623.5C 1404.53,625.029 1405.2,626.196 1406.5,627C 1418.25,634.242 1430.91,637.742 1444.5,637.5C 1443.46,640.777 1442.13,643.943 1440.5,647C 1422.87,650.041 1405.87,648.041 1389.5,641C 1386.81,639.302 1384.48,637.302 1382.5,635C 1396.94,595.629 1410.94,556.129 1424.5,516.5C 1425.17,516.5 1425.5,516.167 1425.5,515.5C 1428.84,511.325 1432,506.992 1435,502.5C 1443.1,485.784 1447.6,468.117 1448.5,449.5C 1456.74,427.303 1464.9,404.97 1473,382.5C 1479.01,377.663 1485.84,374.663 1493.5,373.5 Z"/></g>
<g><path style="opacity:0.991" fill="#f6e245" d="M 1032.5,375.5 C 1074.6,415.995 1116.94,456.329 1159.5,496.5C 1160.63,498.074 1160.8,499.741 1160,501.5C 1151.23,510.176 1142.73,518.843 1134.5,527.5C 1100.17,485.5 1065.83,443.5 1031.5,401.5C 1031.17,392.651 1031.51,383.984 1032.5,375.5 Z"/></g>
<g><path style="opacity:0.985" fill="#000000" d="M 2262.5,379.5 C 2256.69,463.473 2251.36,547.473 2246.5,631.5C 2258.5,631.5 2270.5,631.5 2282.5,631.5C 2282.06,635.154 2281.72,638.821 2281.5,642.5C 2262.5,642.5 2243.5,642.5 2224.5,642.5C 2225.07,636.516 2225.41,630.516 2225.5,624.5C 2227.94,620.453 2230.28,616.286 2232.5,612C 2230.55,608.907 2228.88,605.741 2227.5,602.5C 2229.99,561.488 2232.66,520.488 2235.5,479.5C 2238.99,459.658 2240.32,439.658 2239.5,419.5C 2240.44,407.85 2241.28,396.183 2242,384.5C 2248.53,381.659 2255.36,379.993 2262.5,379.5 Z"/></g>
<g><path style="opacity:0.965" fill="#020202" d="M 2428.5,381.5 C 2406.34,427.145 2384.18,472.811 2362,518.5C 2359.38,511.693 2357.55,504.693 2356.5,497.5C 2374.49,460.189 2392.49,422.855 2410.5,385.5C 2416.15,382.888 2422.15,381.554 2428.5,381.5 Z"/></g>
<g><path style="opacity:0.976" fill="#000000" d="M 1262.5,383.5 C 1260.95,385.829 1260.12,388.496 1260,391.5C 1253.04,467.861 1245.88,544.194 1238.5,620.5C 1238.53,622.029 1239.2,623.196 1240.5,624C 1250.96,631.365 1262.62,634.532 1275.5,633.5C 1275.92,636.079 1275.25,638.246 1273.5,640C 1257.79,645.881 1242.12,645.881 1226.5,640C 1223.83,638.333 1221.17,636.667 1218.5,635C 1224.56,555.18 1231.73,475.347 1240,395.5C 1245.83,391.667 1251.67,387.833 1257.5,384C 1259.13,383.506 1260.8,383.34 1262.5,383.5 Z"/></g>
<g><path style="opacity:0.988" fill="#000000" d="M 1848.5,383.5 C 1843.19,462.326 1837.86,541.159 1832.5,620C 1832.63,624.943 1834.96,628.276 1839.5,630C 1889.5,630.5 1939.5,630.667 1989.5,630.5C 1988.37,634.09 1986.7,637.423 1984.5,640.5C 1956.67,640.833 1928.83,641.167 1901,641.5C 1872.42,641.659 1843.92,641.159 1815.5,640C 1812.53,637.735 1811.2,634.735 1811.5,631C 1814.79,584.516 1817.79,538.016 1820.5,491.5C 1827.51,465.446 1829.18,439.113 1825.5,412.5C 1826.22,405.965 1827.06,399.298 1828,392.5C 1829.2,389.274 1831.03,386.441 1833.5,384C 1838.49,383.501 1843.49,383.334 1848.5,383.5 Z"/></g>
<g><path style="opacity:0.977" fill="#000000" d="M 1641.5,384.5 C 1639.95,386.829 1639.12,389.496 1639,392.5C 1632.04,468.861 1624.88,545.194 1617.5,621.5C 1617.53,623.029 1618.2,624.196 1619.5,625C 1629.96,632.365 1641.62,635.532 1654.5,634.5C 1655.27,638.751 1653.6,641.251 1649.5,642C 1631.08,648.272 1613.75,646.272 1597.5,636C 1596.21,633.168 1596.21,630.335 1597.5,627.5C 1603.3,625.606 1608.97,623.106 1614.5,620C 1615.08,619.107 1615.41,618.107 1615.5,617C 1610.85,600.228 1606.52,583.395 1602.5,566.5C 1607.85,509.84 1613.35,453.174 1619,396.5C 1624.83,392.667 1630.67,388.833 1636.5,385C 1638.13,384.506 1639.8,384.34 1641.5,384.5 Z"/></g>
<g><path style="opacity:0.98" fill="#000000" d="M 2053.5,384.5 C 2051.89,387.189 2051.06,390.189 2051,393.5C 2044,469.687 2036.83,545.853 2029.5,622C 2030.27,624.069 2031.6,625.735 2033.5,627C 2043.56,633.43 2054.56,635.93 2066.5,634.5C 2066.66,636.527 2066.5,638.527 2066,640.5C 2049.55,646.892 2033.05,647.059 2016.5,641C 2014,639.167 2011.5,637.333 2009,635.5C 2008.83,631.507 2009,627.507 2009.5,623.5C 2014.41,610.223 2015.74,596.556 2013.5,582.5C 2018.84,520.414 2024.84,458.414 2031.5,396.5C 2038.32,391.425 2045.65,387.425 2053.5,384.5 Z"/></g>
<g><path style="opacity:0.976" fill="#010101" d="M 2538.5,387.5 C 2522.01,401.426 2510.18,418.759 2503,439.5C 2492.77,470.71 2488.77,502.71 2491,535.5C 2493.07,565.427 2504.57,590.927 2525.5,612C 2561.6,639.584 2600.27,643.75 2641.5,624.5C 2641.49,626.017 2640.82,627.184 2639.5,628C 2621.03,636.934 2601.7,643.268 2581.5,647C 2518.28,647.922 2481.28,617.422 2470.5,555.5C 2471.63,527.13 2473.29,498.796 2475.5,470.5C 2480.37,449.402 2489.2,430.069 2502,412.5C 2512.1,401.252 2524.26,392.919 2538.5,387.5 Z"/></g>
<g><path style="opacity:1" fill="#a39730" d="M 1031.5,401.5 C 1065.83,443.5 1100.17,485.5 1134.5,527.5C 1130.81,531.526 1127.14,535.526 1123.5,539.5C 1120.59,537.761 1118.09,535.428 1116,532.5C 1088.36,492.375 1060.19,452.708 1031.5,413.5C 1031.5,409.5 1031.5,405.5 1031.5,401.5 Z"/></g>
<g><path style="opacity:1" fill="#2d5f8f" d="M 363.5,410.5 C 364.376,410.369 365.043,410.702 365.5,411.5C 390.792,463.748 415.792,516.082 440.5,568.5C 440.5,568.833 440.5,569.167 440.5,569.5C 440.461,570.756 440.961,571.756 442,572.5C 442.5,581.494 442.666,590.494 442.5,599.5C 441.094,599.027 440.427,598.027 440.5,596.5C 441.164,593.854 441.498,591.021 441.5,588C 441.584,584.38 441.084,580.88 440,577.5C 410.632,525.775 381.632,473.775 353,421.5C 352.329,420.748 351.496,420.414 350.5,420.5C 354.614,416.936 358.948,413.603 363.5,410.5 Z"/></g>
<g><path style="opacity:0.996" fill="#428dda" d="M 1031.5,413.5 C 1060.19,452.708 1088.36,492.375 1116,532.5C 1118.09,535.428 1120.59,537.761 1123.5,539.5C 1130.34,551.182 1138.18,562.182 1147,572.5C 1148.18,574.87 1149.35,577.203 1150.5,579.5C 1150.47,581.029 1149.8,582.196 1148.5,583C 1141.63,587.262 1134.97,591.762 1128.5,596.5C 1126.98,596.489 1125.82,595.823 1125,594.5C 1094.55,538.586 1063.38,483.253 1031.5,428.5C 1031.5,423.5 1031.5,418.5 1031.5,413.5 Z"/></g>
<g><path style="opacity:0.996" fill="#408ddb" d="M 350.5,420.5 C 351.496,420.414 352.329,420.748 353,421.5C 381.632,473.775 410.632,525.775 440,577.5C 441.084,580.88 441.584,584.38 441.5,588C 441.498,591.021 441.164,593.854 440.5,596.5C 413.864,559.918 387.697,522.918 362,485.5C 360.871,483.859 359.371,482.859 357.5,482.5C 346.971,467.804 336.638,452.971 326.5,438C 326.759,436.739 327.426,435.739 328.5,435C 336.004,430.311 343.338,425.478 350.5,420.5 Z"/></g>
<g><path style="opacity:0.976" fill="#020202" d="M 1362.5,492.5 C 1370.24,480.33 1373.07,466.997 1371,452.5C 1368.93,441.765 1362.43,435.932 1351.5,435C 1339.55,433.635 1327.55,433.135 1315.5,433.5C 1315.06,430.193 1315.73,427.193 1317.5,424.5C 1334.1,422.595 1350.76,422.095 1367.5,423C 1375.09,423.53 1381.93,426.03 1388,430.5C 1391.58,436.496 1393.42,442.996 1393.5,450C 1392.91,460.851 1390.08,471.018 1385,480.5C 1378.57,486.464 1371.07,490.464 1362.5,492.5 Z"/></g>
<g><path style="opacity:0.976" fill="#020202" d="M 1741.5,493.5 C 1749.24,481.33 1752.07,467.997 1750,453.5C 1747.93,442.765 1741.43,436.932 1730.5,436C 1718.55,434.635 1706.55,434.135 1694.5,434.5C 1694.06,431.193 1694.73,428.193 1696.5,425.5C 1713.1,423.595 1729.76,423.095 1746.5,424C 1754.09,424.53 1760.93,427.03 1767,431.5C 1770.58,437.496 1772.42,443.996 1772.5,451C 1771.91,461.851 1769.08,472.018 1764,481.5C 1757.57,487.464 1750.07,491.464 1741.5,493.5 Z"/></g>
<g><path style="opacity:0.969" fill="#000000" d="M 2000.5,423.5 C 1999.59,427.159 1998.25,430.659 1996.5,434C 1965.5,434.5 1934.5,434.667 1903.5,434.5C 1903.5,430.833 1903.5,427.167 1903.5,423.5C 1935.83,423.5 1968.17,423.5 2000.5,423.5 Z"/></g>
<g><path style="opacity:0.976" fill="#020202" d="M 2156.5,486.5 C 2160.61,479.232 2162.61,471.399 2162.5,463C 2163.98,451.024 2159.31,442.691 2148.5,438C 2134.66,434.62 2120.66,433.787 2106.5,435.5C 2106.46,432.119 2106.79,428.786 2107.5,425.5C 2122.79,423.848 2138.13,423.348 2153.5,424C 2163.72,423.627 2172.56,426.794 2180,433.5C 2186.35,448.323 2185.35,462.656 2177,476.5C 2171.16,481.836 2164.33,485.169 2156.5,486.5 Z"/></g>
<g><path style="opacity:0.96" fill="#010101" d="M 2653.5,442.5 C 2650.31,448.168 2646.14,453.168 2641,457.5C 2620,445.535 2597.5,440.535 2573.5,442.5C 2579.76,436.867 2587.1,433.033 2595.5,431C 2614.51,429.667 2632.85,432.667 2650.5,440C 2651.94,440.377 2652.94,441.21 2653.5,442.5 Z"/></g>
<g><path style="opacity:0.999" fill="#2b5e91" d="M 1031.5,428.5 C 1063.38,483.253 1094.55,538.586 1125,594.5C 1125.82,595.823 1126.98,596.489 1128.5,596.5C 1123.98,600.561 1118.98,603.895 1113.5,606.5C 1112.25,606.423 1111.42,605.756 1111,604.5C 1084.94,549.497 1058.77,494.497 1032.5,439.5C 1031.58,435.936 1031.24,432.269 1031.5,428.5 Z"/></g>
<g><path style="opacity:0.999" fill="#94d405" d="M 1032.5,439.5 C 1058.77,494.497 1084.94,549.497 1111,604.5C 1111.42,605.756 1112.25,606.423 1113.5,606.5C 1119.72,620.311 1126.06,634.145 1132.5,648C 1132.24,649.261 1131.57,650.261 1130.5,651C 1126.99,652.372 1123.66,654.038 1120.5,656C 1113.76,658.206 1107.42,661.206 1101.5,665C 1099.87,665.494 1098.2,665.66 1096.5,665.5C 1075.29,596.332 1053.63,527.332 1031.5,458.5C 1031.18,451.978 1031.51,445.645 1032.5,439.5 Z"/></g>
<g><path style="opacity:1" fill="#2f2f2f" d="M 783.5,497.5 C 741.069,528.573 699.069,560.406 657.5,593C 652.726,595.28 648.726,594.446 645.5,590.5C 689.167,555.167 732.833,519.833 776.5,484.5C 794.105,470.372 811.772,456.539 829.5,443C 813.985,461.014 798.652,479.181 783.5,497.5 Z"/></g>
<g><path style="opacity:0.988" fill="#020202" d="M 1508.5,534.5 C 1506.72,523.128 1504.72,511.795 1502.5,500.5C 1506.62,484.635 1511.45,468.968 1517,453.5C 1521.75,478.683 1526.59,503.85 1531.5,529C 1531.25,530.326 1530.58,531.326 1529.5,532C 1522.48,532.753 1515.48,533.586 1508.5,534.5 Z"/></g>
<g><path style="opacity:0.998" fill="#6a9301" d="M 1031.5,458.5 C 1053.63,527.332 1075.29,596.332 1096.5,665.5C 1092.33,668.312 1087.99,670.979 1083.5,673.5C 1079.35,659.874 1075.68,646.208 1072.5,632.5C 1072.59,629.848 1071.92,627.515 1070.5,625.5C 1058.1,572.568 1045.1,519.901 1031.5,467.5C 1031.5,464.5 1031.5,461.5 1031.5,458.5 Z"/></g>
<g><path style="opacity:1" fill="#fc4f56" d="M 1031.5,467.5 C 1045.1,519.901 1058.1,572.568 1070.5,625.5C 1070.41,628.152 1071.08,630.485 1072.5,632.5C 1075.68,646.208 1079.35,659.874 1083.5,673.5C 1087.75,690.679 1092.09,707.846 1096.5,725C 1095.28,726.74 1093.62,727.74 1091.5,728C 1075.61,732.14 1059.61,735.973 1043.5,739.5C 1040.43,663.966 1036.43,588.633 1031.5,513.5C 1031.5,498.167 1031.5,482.833 1031.5,467.5 Z"/></g>
<g><path style="opacity:1" fill="#a19632" d="M 357.5,482.5 C 359.371,482.859 360.871,483.859 362,485.5C 387.697,522.918 413.864,559.918 440.5,596.5C 440.427,598.027 441.094,599.027 442.5,599.5C 442.827,609.348 442.494,619.014 441.5,628.5C 441.666,621.825 441.5,615.158 441,608.5C 409.999,570.003 378.833,531.669 347.5,493.5C 350.123,489.209 353.456,485.543 357.5,482.5 Z"/></g>
<g><path style="opacity:0.991" fill="#f5e245" d="M 347.5,493.5 C 378.833,531.669 409.999,570.003 441,608.5C 441.5,615.158 441.666,621.825 441.5,628.5C 441.5,628.833 441.5,629.167 441.5,629.5C 414.29,604.121 387.29,578.621 360.5,553C 358.963,551.89 358.297,550.39 358.5,548.5C 357.448,548.649 356.448,548.483 355.5,548C 345.266,537.598 334.932,527.431 324.5,517.5C 330.195,510.127 336.362,503.127 343,496.5C 344.615,495.614 346.115,494.614 347.5,493.5 Z"/></g>
<g><path style="opacity:0.981" fill="#000000" d="M 2409.5,621.5 C 2408.52,624.625 2408.19,627.958 2408.5,631.5C 2420.83,631.5 2433.17,631.5 2445.5,631.5C 2445.28,635.179 2444.94,638.846 2444.5,642.5C 2425.5,642.5 2406.5,642.5 2387.5,642.5C 2388.87,617.169 2390.21,591.836 2391.5,566.5C 2399.03,547.747 2406.86,529.081 2415,510.5C 2413.22,547.482 2411.39,584.482 2409.5,621.5 Z"/></g>
<g><path style="opacity:0.982" fill="#020202" d="M 2346.5,630.5 C 2344.38,640.853 2338.05,644.686 2327.5,642C 2323.73,640.698 2320.56,638.531 2318,635.5C 2314.12,618.632 2309.95,601.966 2305.5,585.5C 2307.18,560.769 2309.35,536.103 2312,511.5C 2321.16,548.463 2330.16,585.463 2339,622.5C 2341.03,625.692 2343.53,628.359 2346.5,630.5 Z"/></g>
<g><path style="opacity:0.991" fill="#000000" d="M 1976.5,517.5 C 1975.25,521.176 1973.58,524.676 1971.5,528C 1946.5,528.5 1921.5,528.667 1896.5,528.5C 1896.5,524.833 1896.5,521.167 1896.5,517.5C 1923.17,517.5 1949.83,517.5 1976.5,517.5 Z"/></g>
<g><path style="opacity:0.772" fill="#0a0a0a" d="M 2187.5,527.5 C 2183.77,530.559 2179.77,533.226 2175.5,535.5C 2174.08,535.25 2173.08,534.417 2172.5,533C 2177.42,531.017 2182.42,529.184 2187.5,527.5 Z"/></g>
<g><path style="opacity:1" fill="#a7a7a7" d="M 776.5,484.5 C 732.833,519.833 689.167,555.167 645.5,590.5C 642.733,592.918 639.733,593.084 636.5,591C 607.22,577.919 577.553,565.586 547.5,554C 542.919,550.562 541.419,546.062 543,540.5C 543.66,538.676 544.827,537.343 546.5,536.5C 544.947,542.915 546.947,548.081 552.5,552C 581.293,564.321 610.293,576.154 639.5,587.5C 640.938,587.281 642.271,586.781 643.5,586C 676.319,560.092 709.319,534.425 742.5,509C 753.715,500.569 765.049,492.403 776.5,484.5 Z"/></g>
<g><path style="opacity:0.916" fill="#060606" d="M 1393.5,534.5 C 1385.17,540.828 1375.84,545.328 1365.5,548C 1344.82,552.838 1324.15,557.672 1303.5,562.5C 1302.89,559.696 1302.89,556.696 1303.5,553.5C 1333.89,549.068 1363.89,542.735 1393.5,534.5 Z"/></g>
<g><path style="opacity:0.916" fill="#060606" d="M 1772.5,535.5 C 1764.17,541.828 1754.84,546.328 1744.5,549C 1723.82,553.838 1703.15,558.672 1682.5,563.5C 1681.89,560.696 1681.89,557.696 1682.5,554.5C 1712.89,550.068 1742.89,543.735 1772.5,535.5 Z"/></g>
<g><path style="opacity:1" fill="#af363c" d="M 1031.5,513.5 C 1036.43,588.633 1040.43,663.966 1043.5,739.5C 1039.63,739.872 1035.96,740.872 1032.5,742.5C 1031.5,666.238 1031.17,589.904 1031.5,513.5 Z"/></g>
<g><path style="opacity:0.973" fill="#010101" d="M 2202.5,636.5 C 2194.82,644.415 2185.32,648.415 2174,648.5C 2167.38,647.983 2160.88,646.816 2154.5,645C 2134.6,616.013 2114.6,587.18 2094.5,558.5C 2094.5,554.833 2094.5,551.167 2094.5,547.5C 2100.7,547.163 2106.86,546.497 2113,545.5C 2114.11,545.585 2115.11,545.919 2116,546.5C 2135.8,575.928 2155.96,605.095 2176.5,634C 2185.02,636.196 2193.69,637.029 2202.5,636.5 Z"/></g>
<g><path style="opacity:0.971" fill="#010101" d="M 1595.5,628.5 C 1595.59,629.496 1595.25,630.329 1594.5,631C 1586.74,635.587 1578.4,638.587 1569.5,640C 1557.79,640.832 1546.13,640.499 1534.5,639C 1532.59,637.299 1531.42,635.133 1531,632.5C 1527.65,619.451 1524.15,606.451 1520.5,593.5C 1519.5,593.167 1518.5,592.833 1517.5,592.5C 1503.2,594.533 1488.87,596.2 1474.5,597.5C 1475.49,594.862 1476.49,592.195 1477.5,589.5C 1498.69,585.684 1520.03,583.184 1541.5,582C 1545.83,597 1550.17,612 1554.5,627C 1561.52,628.922 1568.69,629.755 1576,629.5C 1582.51,629.313 1589.01,628.98 1595.5,628.5 Z"/></g>
<g><path style="opacity:1" fill="#aaaaaa" d="M 857.5,676.5 C 862.193,680.766 867.359,681.432 873,678.5C 873.406,675.258 874.239,672.258 875.5,669.5C 876.412,679.921 871.746,684.588 861.5,683.5C 834.38,672.685 807.38,661.685 780.5,650.5C 777.744,648.796 774.744,647.463 771.5,646.5C 750.571,636.74 729.237,627.74 707.5,619.5C 707.167,619.833 706.833,620.167 706.5,620.5C 712.46,630.874 716.96,641.874 720,653.5C 721.753,662.539 723.586,671.539 725.5,680.5C 722.757,684.425 720.757,688.758 719.5,693.5C 714.557,699.274 709.057,704.608 703,709.5C 702.536,710.094 702.369,710.761 702.5,711.5C 702.167,711.5 701.833,711.5 701.5,711.5C 699.304,710.146 697.804,708.146 697,705.5C 696.333,676.833 696.333,648.167 697,619.5C 697.465,618.069 698.299,616.903 699.5,616C 704.326,615.382 708.992,616.049 713.5,618C 761.428,637.802 809.428,657.302 857.5,676.5 Z"/></g>
<g><path style="opacity:1" fill="#959595" d="M 771.5,646.5 C 769.217,646.608 767.217,647.441 765.5,649C 750.047,663.618 734.714,678.451 719.5,693.5C 720.757,688.758 722.757,684.425 725.5,680.5C 723.586,671.539 721.753,662.539 720,653.5C 716.96,641.874 712.46,630.874 706.5,620.5C 706.833,620.167 707.167,619.833 707.5,619.5C 729.237,627.74 750.571,636.74 771.5,646.5 Z"/></g>
<g><path style="opacity:1" fill="#b6b6b6" d="M 2409.5,621.5 C 2409.5,624.5 2409.5,627.5 2409.5,630.5C 2421.68,630.172 2433.68,630.505 2445.5,631.5C 2433.17,631.5 2420.83,631.5 2408.5,631.5C 2408.19,627.958 2408.52,624.625 2409.5,621.5 Z"/></g>
<g><path style="opacity:1" fill="#bb6d31" d="M 1070.5,625.5 C 1071.92,627.515 1072.59,629.848 1072.5,632.5C 1071.08,630.485 1070.41,628.152 1070.5,625.5 Z"/></g>
<g><path style="opacity:1" fill="#2e2e2e" d="M 771.5,646.5 C 774.744,647.463 777.744,648.796 780.5,650.5C 759.063,670.1 737.729,689.933 716.5,710C 712.259,714.094 707.593,714.594 702.5,711.5C 702.369,710.761 702.536,710.094 703,709.5C 709.057,704.608 714.557,699.274 719.5,693.5C 734.714,678.451 750.047,663.618 765.5,649C 767.217,647.441 769.217,646.608 771.5,646.5 Z"/></g>
<g><path style="opacity:1" fill="#4c5930" d="M 738.5,812.5 C 754.833,811.167 771.167,811.167 787.5,812.5C 787.5,813.167 787.167,813.5 786.5,813.5C 775.346,812.505 764.012,812.172 752.5,812.5C 747.833,812.5 743.167,812.5 738.5,812.5 Z"/></g>
<g><path style="opacity:1" fill="#b0363c" d="M 508.5,812.5 C 584.833,812.5 661.167,812.5 737.5,812.5C 735.786,813.738 733.786,814.405 731.5,814.5C 728.854,813.836 726.021,813.502 723,813.5C 652.484,817.183 581.984,820.85 511.5,824.5C 510.503,820.521 509.503,816.521 508.5,812.5 Z"/></g>
<g><path style="opacity:0.997" fill="#6b9202" d="M 737.5,812.5 C 737.833,812.5 738.167,812.5 738.5,812.5C 743.167,812.5 747.833,812.5 752.5,812.5C 695.836,831.276 638.836,849.276 581.5,866.5C 579.309,862.593 577.309,858.593 575.5,854.5C 576.848,852.52 578.848,851.353 581.5,851C 631.594,839.133 681.594,826.967 731.5,814.5C 733.786,814.405 735.786,813.738 737.5,812.5 Z"/></g>
<g><path style="opacity:0.999" fill="#95d401" d="M 752.5,812.5 C 764.012,812.172 775.346,812.505 786.5,813.5C 739.051,835.885 691.384,858.385 643.5,881C 642.29,882.039 641.29,883.206 640.5,884.5C 626.797,890.309 613.297,896.642 600,903.5C 599,902.5 598,901.5 597,900.5C 591.552,889.242 586.385,877.909 581.5,866.5C 638.836,849.276 695.836,831.276 752.5,812.5 Z"/></g>
<g><path style="opacity:0.999" fill="#2d5f8e" d="M 787.5,812.5 C 791.5,812.5 795.5,812.5 799.5,812.5C 750.062,840.724 700.396,868.724 650.5,896.5C 647.543,892.208 644.21,888.208 640.5,884.5C 641.29,883.206 642.29,882.039 643.5,881C 691.384,858.385 739.051,835.885 786.5,813.5C 787.167,813.5 787.5,813.167 787.5,812.5 Z"/></g>
<g><path style="opacity:0.997" fill="#408dda" d="M 799.5,812.5 C 806.022,812.177 812.355,812.51 818.5,813.5C 784.196,837.657 749.862,861.824 715.5,886C 713.963,887.11 713.297,888.61 713.5,890.5C 698.219,900.452 683.219,910.785 668.5,921.5C 661.743,913.628 655.743,905.294 650.5,896.5C 700.396,868.724 750.062,840.724 799.5,812.5 Z"/></g>
<g><path style="opacity:1" fill="#a19632" d="M 832.5,812.5 C 796.539,841.489 760.539,870.489 724.5,899.5C 720.624,896.737 716.957,893.737 713.5,890.5C 713.297,888.61 713.963,887.11 715.5,886C 749.862,861.824 784.196,837.657 818.5,813.5C 823.07,812.559 827.737,812.226 832.5,812.5 Z"/></g>
<g><path style="opacity:0.992" fill="#f5e245" d="M 832.5,812.5 C 842.167,812.5 851.833,812.5 861.5,812.5C 826.04,850.802 789.874,888.802 753,926.5C 742.709,918.377 733.209,909.377 724.5,899.5C 760.539,870.489 796.539,841.489 832.5,812.5 Z"/></g>
<g><path style="opacity:1" fill="#fc4e56" d="M 731.5,814.5 C 681.594,826.967 631.594,839.133 581.5,851C 578.848,851.353 576.848,852.52 575.5,854.5C 558.279,858.613 540.945,862.613 523.5,866.5C 522.353,866.182 521.519,865.516 521,864.5C 517.922,851.109 514.755,837.776 511.5,824.5C 581.984,820.85 652.484,817.183 723,813.5C 726.021,813.502 728.854,813.836 731.5,814.5 Z"/></g>
</svg>
