<?xml version="1.0" encoding="utf-8"?>
<!-- Generator: Adobe Illustrator 25.4.1, SVG Export Plug-In . SVG Version: 6.00 Build 0)  -->
<svg version="1.1" id="Layer_1" xmlns="http://www.w3.org/2000/svg" xmlns:xlink="http://www.w3.org/1999/xlink" x="0px" y="0px"
	 viewBox="0 0 226.8 226.8" style="enable-background:new 0 0 226.8 226.8;" xml:space="preserve">
<style type="text/css">
	.st0{display:none;opacity:0.1;enable-background:new    ;}
	.st1{fill:none;}
	.st2{opacity:0.1;enable-background:new    ;}
</style>
<path class="st0" d="M146.9,94.4l-11.8-11.8c0-2.1,3-5.8,3-8.8c0-3.2-2.7-5.9-5.9-5.9c-12.8,0-19.8,8.8-19.8,8.8H87.9
	c-14.5,0-26.6,11.6-26.6,26.6c0,13.7,11.8,53.1,11.8,53.1h26.5v-8.9h8.8v8.9h26.5l7.4-26.6l13.3-2.9V94.4H146.9z M114.4,100.2H90.8
	v-8.8h23.6V100.2z M127.7,109.1c-2.4,0-4.4-2-4.4-4.4s2-4.4,4.4-4.4c2.4,0,4.4,2,4.4,4.4S130.1,109.1,127.7,109.1z"/>
<rect x="56.7" y="56.7" class="st1" width="113.4" height="113.4"/>
<path class="st2" d="M150.3,93.7L139,82.4c0-2.1,2.8-5.6,2.8-8.5c0-3.1-2.5-5.7-5.7-5.7c-12.3,0-18.9,8.5-18.9,8.5H93.7
	c-13.9,0-25.5,11.1-25.5,25.5c0,13.2,11.3,51.1,11.3,51.1H105v-8.5h8.5v8.5H139l7-25.5l12.8-2.8V93.7H150.3z M119.2,99.2H96.5v-8.5
	h22.7V99.2z M132,107.8c-2.3,0-4.3-1.9-4.3-4.3c0-2.3,1.9-4.3,4.3-4.3s4.3,1.9,4.3,4.3C136.2,105.8,134.2,107.8,132,107.8z"/>
<rect x="170.1" y="170.1" class="st1" width="113.4" height="113.4"/>
<path class="st2" d="M263.7,207.1l-11.3-11.3c0-2.1,2.8-5.6,2.8-8.5c0-3.1-2.5-5.7-5.7-5.7c-12.3,0-18.9,8.5-18.9,8.5h-23.5
	c-13.9,0-25.5,11.1-25.5,25.5c0,13.2,11.3,51.1,11.3,51.1h25.5v-8.5h8.5v8.5h25.5l7-25.5l12.8-2.8v-31.2H263.7z M232.6,212.6h-22.7
	v-8.5h22.7V212.6z M245.4,221.2c-2.3,0-4.3-1.9-4.3-4.3s1.9-4.3,4.3-4.3c2.3,0,4.3,1.9,4.3,4.3S247.6,221.2,245.4,221.2z"/>
<rect x="170.2" y="-56.7" class="st1" width="113.4" height="113.4"/>
<path class="st2" d="M263.8-19.7L252.5-31c0-2.1,2.8-5.6,2.8-8.5c0-3.1-2.5-5.7-5.7-5.7c-12.3,0-18.9,8.5-18.9,8.5h-23.5
	c-13.9,0-25.5,11.1-25.5,25.5c0,13.2,11.3,51.1,11.3,51.1h25.5v-8.5h8.5v8.5h25.5l7-25.5l12.8-2.8v-31.2H263.8z M232.7-14.2h-22.7
	v-8.5h22.7V-14.2z M245.4-5.6c-2.3,0-4.3-1.9-4.3-4.3s1.9-4.3,4.3-4.3s4.3,1.9,4.3,4.3S247.6-5.6,245.4-5.6z"/>
<rect x="-56.7" y="-56.7" class="st1" width="113.4" height="113.4"/>
<path class="st2" d="M36.9-19.7L25.6-31c0-2.1,2.8-5.6,2.8-8.5c0-3.1-2.5-5.7-5.7-5.7c-12.3,0-18.9,8.5-18.9,8.5h-23.5
	c-13.9,0-25.5,11.1-25.5,25.5C-45.3,2-34,39.8-34,39.8h25.5v-8.5h8.5v8.5h25.5l7-25.5l12.8-2.8v-31.2H36.9z M5.8-14.2h-22.7v-8.5
	H5.8V-14.2z M18.6-5.6c-2.3,0-4.3-1.9-4.3-4.3s1.9-4.3,4.3-4.3s4.3,1.9,4.3,4.3S20.8-5.6,18.6-5.6z"/>
<rect x="-56.7" y="170.1" class="st1" width="113.4" height="113.4"/>
<path class="st2" d="M36.9,207.1l-11.3-11.3c0-2.1,2.8-5.6,2.8-8.5c0-3.1-2.5-5.7-5.7-5.7c-12.3,0-18.9,8.5-18.9,8.5h-23.5
	c-13.9,0-25.5,11.1-25.5,25.5c0,13.2,11.3,51.1,11.3,51.1h25.5v-8.5h8.5v8.5h25.5l7-25.5l12.8-2.8v-31.2H36.9z M5.8,212.6h-22.7
	v-8.5H5.8V212.6z M18.6,221.2c-2.3,0-4.3-1.9-4.3-4.3s1.9-4.3,4.3-4.3s4.3,1.9,4.3,4.3S20.8,221.2,18.6,221.2z"/>
</svg>
