<?xml version="1.0" encoding="UTF-8" standalone="no"?><!DOCTYPE svg PUBLIC "-//W3C//DTD SVG 1.1//EN" "http://www.w3.org/Graphics/SVG/1.1/DTD/svg11.dtd"><svg width="100%" height="100%" viewBox="0 0 93 93" version="1.1" xmlns="http://www.w3.org/2000/svg" xmlns:xlink="http://www.w3.org/1999/xlink" xml:space="preserve" xmlns:serif="http://www.serif.com/" style="fill-rule:evenodd;clip-rule:evenodd;stroke-linejoin:round;stroke-miterlimit:1.41421;"><rect id="Dark_Blue" x="0" y="0" width="92.584" height="92.584" style="fill:#1da1f2;"/><g id="Logo_FIXED"><path d="M35.557,69.806c21.836,0 33.779,-18.091 33.779,-33.779c0,-0.514 0,-1.026 -0.034,-1.535c2.323,-1.68 4.329,-3.761 5.923,-6.145c-2.167,0.96 -4.466,1.59 -6.819,1.868c2.478,-1.483 4.333,-3.818 5.219,-6.567c-2.33,1.383 -4.88,2.358 -7.538,2.882c-2.245,-2.387 -5.38,-3.742 -8.657,-3.742c-6.519,0 -11.883,5.364 -11.883,11.883c0,0.904 0.103,1.806 0.308,2.687c-9.541,-0.479 -18.443,-4.991 -24.468,-12.404c-3.133,5.394 -1.512,12.384 3.676,15.848c-1.89,-0.056 -3.738,-0.566 -5.389,-1.486c0,0.049 0,0.099 0,0.15c0.002,5.63 4.006,10.523 9.525,11.638c-1.748,0.477 -3.582,0.547 -5.361,0.204c1.552,4.824 6.025,8.149 11.092,8.245c-4.203,3.303 -9.398,5.097 -14.744,5.092c-0.945,-0.002 -1.889,-0.059 -2.826,-0.172c5.428,3.484 11.747,5.333 18.197,5.324" style="fill:#fff;fill-rule:nonzero;"/><rect x="0" y="0" width="92.584" height="92.584" style="fill:none;"/></g></svg>