<svg id="Layer_1" data-name="Layer 1" xmlns="http://www.w3.org/2000/svg" viewBox="0 0 265 65"><defs><style>.cls-1{fill:none;}.cls-2{fill:#fff;}.cls-3{fill:#fa0;}.cls-4{fill:#aaa;}.cls-5{fill:#55f;}.cls-6{fill:#5f5;}.cls-7{fill:#67cbdf;}.cls-8{fill:#f55;}.cls-9{fill:#f5f;}.cls-10{fill:#ff5;}.cls-11{fill:#444;}</style></defs><title>Artboard 1</title><rect class="cls-1" x="21.91" y="9.37" width="48.25" height="48.25"/><rect class="cls-2" x="24.1" y="13.02" width="40.27" height="40.27" transform="translate(-10.23 23.7) rotate(-27)"/><rect class="cls-3" x="24.1" y="13.02" width="40.27" height="40.27" transform="translate(-9.66 20.86) rotate(-24)"/><rect class="cls-4" x="24.1" y="13.02" width="40.27" height="40.27" transform="translate(-8.94 18.06) rotate(-21)"/><rect class="cls-5" x="24.1" y="13.02" width="40.27" height="40.27" transform="translate(-8.08 15.29) rotate(-18)"/><rect class="cls-6" x="24.1" y="13.02" width="40.27" height="40.27" transform="translate(-7.07 12.58) rotate(-15)"/><rect class="cls-7" x="24.17" y="12.97" width="40.36" height="40.36" transform="translate(-5.96 10.03) rotate(-12.09)"/><rect class="cls-8" x="24.1" y="13.02" width="40.27" height="40.27" transform="translate(-4.64 7.33) rotate(-9)"/><rect class="cls-9" x="24.1" y="13.02" width="40.27" height="40.27" transform="translate(-3.22 4.81) rotate(-6)"/><rect class="cls-10" x="24.1" y="13.02" width="40.27" height="40.27" transform="translate(-1.67 2.36) rotate(-3)"/><rect class="cls-11" x="24.1" y="13.02" width="40.27" height="40.27"/><path class="cls-2" d="M58.62,20.28,54.5,45a1,1,0,0,1-.52.72,1.06,1.06,0,0,1-.5.13,1,1,0,0,1-.38-.08l-7.29-3-3.89,4.75a1,1,0,0,1-.79.37.84.84,0,0,1-.35-.07,1,1,0,0,1-.68-1V41.25l13.9-17L36.8,39.1l-6.35-2.61a1,1,0,0,1-.65-.88,1,1,0,0,1,.52-1L57.09,19.21a1,1,0,0,1,1.09,0A1.06,1.06,0,0,1,58.62,20.28Z"/><path class="cls-2" d="M104.6,16.15q5.22,0,7.24,3.64l.9,3.64q0,2.25-13.11,8.59-6.8,2.82-7.08,3.5c-.7,1.25-1.15,1.88-1.35,1.88a5.21,5.21,0,0,0-1.35,1.74h-.3v.15l-.15-.15h-.15c-.22,0-.52.64-.91,1.9H88l.15.15v.14c-.31,0-1.06,1.17-2.26,3.5q-.45,1.74-1.8,1.74v-.29H84l-.6.14-.17-.14h-.15l-.45.14-.3-.29-.3.29L81,45.26V45q0-1.44,3.77-9l-.45-.14.15-.15v-.14l-.75-.6-.62.15-.3-.44.15-.14v-.15c-.6,0-.9-.15-.9-.43a35,35,0,0,1,5.87-3.36l3-6h-.15q-1.8,0-3.47-3.35V19.93q1.23-1.51,6.33-2.46Q96.54,16.87,104.6,16.15ZM96.31,26.93h.16a44.71,44.71,0,0,0,9-5.4v-.15h-.15q-6.16.23-6.17.89Z"/><path class="cls-2" d="M122,17.32c2.68,0,4.31.77,4.92,2.31a81.08,81.08,0,0,1,1.25,8.12l.15.14c0,.64.19.95.41.95l4.49-.54v.27h.15l2.23-.13v.26l-1,.27v.15h1l1-.15v.28a7,7,0,0,1-2.24.55v.27l.7-.15c.65.19,1,.37,1,.55l.72-.14c1.86.05,2.8.23,2.8.55l-.15.12,1,.28v.27c-1.27.64-3.88,1.18-7.85,1.63l-2.52.4q1.82,6.9,1.82,9.36v.54l-.42.42h-.15a1.61,1.61,0,0,1-1-.42v.42H130v-.28l-.43.28-.55-.42-1.4.54-1.14-1.08q-.7-1.09-2.1-8h-.13q-8.83,2.34-8.84,3.67A26.39,26.39,0,0,0,112,42.8c-.64.73-1.16,1.1-1.55,1.1l-.28-.68-.14.13h-.13c-.57-.33-.85-.68-.85-1.08l-.13.13h-.29v-.28c-.39,0-.76-.27-1.11-.8-.38,0-.57-.09-.57-.28v-.95q0-1.52,3.37-5A77.18,77.18,0,0,1,115,28.7l4.77-8.12,1-2.72A2.33,2.33,0,0,1,122,17.32Zm-1.12,13.15v.13c1.59-.4,2.38-.66,2.38-.8l-.41-2.18A11.41,11.41,0,0,0,120.86,30.47Zm13-2.3h.28v.27h-.28Zm.15.95v.13h.28v-.13Z"/><path class="cls-2" d="M149,16.15c3.47,0,5.89,1.21,7.23,3.64l.9,3.64q0,2.25-13.1,8.59-6.81,2.82-7.09,3.5c-.7,1.25-1.15,1.88-1.35,1.88a5.21,5.21,0,0,0-1.35,1.74h-.3v.15l-.15-.15h-.15c-.21,0-.51.64-.9,1.9h-.3l.15.15v.14c-.31,0-1.07,1.17-2.27,3.5q-.45,1.74-1.8,1.74v-.29h-.15l-.6.14-.17-.14h-.15l-.45.14-.3-.29-.3.29-1-1.16V45q0-1.44,3.77-9l-.45-.14.15-.15v-.14l-.75-.6-.62.15-.3-.44.15-.14v-.15c-.6,0-.9-.15-.9-.43a35.47,35.47,0,0,1,5.87-3.36l3-6h-.15q-1.8,0-3.47-3.35V19.93c.82-1,2.94-1.83,6.34-2.46Q140.88,16.87,149,16.15Zm-8.29,10.78h.15a44.78,44.78,0,0,0,9-5.4v-.15h-.15c-4.12.15-6.17.45-6.17.89Z"/><path class="cls-2" d="M171.1,17.19c0,.37.19.55.57.55V18h-.44v.14c.48,0,.72.09.72.28v.14h-.57c0,.28.29.42.85.42v.27h-.43v.13h1.72l1.3.7-.15.14v.13c.47,0,.71.1.71.29s-1.76.7-5.3,1.09q-1.8,0-6.85,1.94l-1.59,3h.15a22.8,22.8,0,0,1,4.44-.42l.28.42-.43.15V27c.77,0,1.15.09,1.15.27l-.72.29v.13h.29l-.14.42q0,.69,1.14,1.11v.13l-.14.15v.12c.48,0,.72.1.72.29v.13q0,.42-9,2.21-1.11,0-2.87,4.16l10.31-1.66V35H167l.71-.14c.13.46.36.69.72.69V36a1,1,0,0,0-.72.42h-.3v.13h.87v.29h-.72l.15.13v.14l-.15.13c1.41,0,2.18.23,2.29.69l-.13.15c.47.06.71.2.71.42-.84.52-3.71,1.21-8.59,2.06-5.72.93-8.58,1.77-8.58,2.5a2.18,2.18,0,0,1-1.29,1.24h-.15l-.85-.7h-.3l-.71.15c0-.24-.48-.47-1.42-.69l-.44.13-.14-.13v-.15l.14-.42h-.28l-.15.15h-.13l-.15-.15v-.13q1.18-4.11,10.59-23.23c0-.93.66-1.48,2-1.66l5.58.14Z"/><path class="cls-2" d="M184.12,16.21h1.3q9.72,0,11.47,6.17l.15.86v.42q0,1.85-8.72,6.17,2.19,8.94,2.19,12.49l.15.14v.13l-.15.43.15,1.26-.15.15h-.29q0-.57-.3-.57c0,.28-.09.42-.28.42h-.3l-.13-.14h-.15c-.15.37-.29.56-.44.56l-.73-.14-.28.29c-.07-.48-.32-.71-.74-.71a76.68,76.68,0,0,1-4.05-12.07l-6.54,2.11c-.6,1.32-1.08,2.07-1.45,2.24l-.15.71h-.43l.58-1.55v-.14h-.15L174,37l.3.29c-.37,0-1.1,1-2.18,2.94q-.21,0-.87,1.83c-.2,0-.69.94-1.45,2.81h-.15c0-.43-.49-.81-1.45-1.13l-.29.29c0-.2-.15-.29-.45-.29l-.43.14a1.21,1.21,0,0,0-.87-.84v-.43q0-3.41,8-18.8c-2-1.34-3-2.41-3-3.23v-.69c.08-.49,1.87-1.34,5.37-2.53C176.91,16.59,179.47,16.21,184.12,16.21ZM179.47,27.3h.3q8.72-3.61,10.59-5.75V21.4l-2.9-.13h-.29q-5.52,0-5.52,1.26A29.65,29.65,0,0,1,179.47,27.3Z"/><path class="cls-2" d="M203.11,16.47h.75c1.15,0,2.15.72,3,2.18l-.3,5.8a8.76,8.76,0,0,0,.75,3.93c.22,0,1.22-1,3-2.92q.51-.15,6-5.65,2.07-2.76,4.22-2.76l1-.15q1.47.33,1.65.87.34,0,1.35,1.17v.29c0,1-1.45,4.56-4.36,10.74q-1.49,3.48-2,3.48l.15.15v.14l-2,3.77q-.25,0-2.4,4.81L213,43.62H212v-.29l-.6.29c0-.21-.35-.41-1-.58l-.3.29q-.42,0-.6-.72c-.4,0-.6-.1-.6-.29v-1q0-2.82,4.5-10.89a28.93,28.93,0,0,0-4.5,5.22c-.33,0-.79.29-1.37.87h-.15a7.58,7.58,0,0,0-3-1.31q-1.51-1-2.7-5.94h-.15q-6.56,14.53-7.22,15.1h-.3l-.75-.44-.45.15-.15-.15-.15.15-.3-.58-.3.29-.15-.15-1.35.29q-.33-.79-.9-.87v-.58q0-3.48,8.57-19.75c1.34-4,2.45-5.95,3.3-5.95Z"/><path class="cls-2" d="M241.71,17.61h1.09c2.69,0,4.61.76,5.77,2.26v1.35c0,1.92-.73,2.87-2.19,2.87a12.46,12.46,0,0,0-3.42-.45q-11.43,0-15.72,10.52l-.32,1.52v.45q0,2.26,3.12,2.85a23.65,23.65,0,0,0,5.14.45H238v.31h-.64v.14c.25,0,.51.2.79.6h.15v.45l-1.7.16v.15h.3l-.3.9h.3v.3h-.3v.15a.53.53,0,0,1,.61.6h.32l-.17-.15V42.9l.17-.16h.93V43l.15.15-.15.16H238v.14l.3.31h.46l-.15-.16v-.15l.47-.14.47.14q0,1.35-10.89,1.36-6.87,0-9.65-6.47v-2q0-7,9.8-14.89A22.54,22.54,0,0,1,241.71,17.61ZM238.28,40h.93v.3h-.93Z"/></svg>