<svg id="Layer_1" data-name="Layer 1" xmlns="http://www.w3.org/2000/svg" viewBox="0 0 265 65"><defs><style>.cls-1{fill:none;}.cls-12,.cls-2{fill:#fff;}.cls-3{fill:#fa0;}.cls-4{fill:#aaa;}.cls-5{fill:#55f;}.cls-6{fill:#5f5;}.cls-7{fill:#67cbdf;}.cls-8{fill:#f55;}.cls-9{fill:#f5f;}.cls-10{fill:#ff5;}.cls-11{fill:#444;}.cls-12{font-size:33px;font-family:lazer84, lazer84;}</style></defs><title>Artboard 1</title><rect class="cls-1" x="21.91" y="9.37" width="48.25" height="48.25"/><rect class="cls-2" x="24.1" y="13.02" width="40.27" height="40.27" transform="translate(-10.23 23.7) rotate(-27)"/><rect class="cls-3" x="24.1" y="13.02" width="40.27" height="40.27" transform="translate(-9.66 20.86) rotate(-24)"/><rect class="cls-4" x="24.1" y="13.02" width="40.27" height="40.27" transform="translate(-8.94 18.06) rotate(-21)"/><rect class="cls-5" x="24.1" y="13.02" width="40.27" height="40.27" transform="translate(-8.08 15.29) rotate(-18)"/><rect class="cls-6" x="24.1" y="13.02" width="40.27" height="40.27" transform="translate(-7.07 12.58) rotate(-15)"/><rect class="cls-7" x="24.17" y="12.97" width="40.36" height="40.36" transform="translate(-5.96 10.03) rotate(-12.09)"/><rect class="cls-8" x="24.1" y="13.02" width="40.27" height="40.27" transform="translate(-4.64 7.33) rotate(-9)"/><rect class="cls-9" x="24.1" y="13.02" width="40.27" height="40.27" transform="translate(-3.22 4.81) rotate(-6)"/><rect class="cls-10" x="24.1" y="13.02" width="40.27" height="40.27" transform="translate(-1.67 2.36) rotate(-3)"/><rect class="cls-11" x="24.1" y="13.02" width="40.27" height="40.27"/><path class="cls-2" d="M58.62,20.28,54.5,45a1,1,0,0,1-.52.72,1.06,1.06,0,0,1-.5.13,1,1,0,0,1-.38-.08l-7.29-3-3.89,4.75a1,1,0,0,1-.79.37.84.84,0,0,1-.35-.07,1,1,0,0,1-.68-1V41.25l13.9-17L36.8,39.1l-6.35-2.61a1,1,0,0,1-.65-.88,1,1,0,0,1,.52-1L57.09,19.21a1,1,0,0,1,1.09,0A1.06,1.06,0,0,1,58.62,20.28Z"/><text class="cls-12" transform="translate(88.31 40.75) scale(1.03 1)">PaperMC</text></svg>